<?xml version="1.0" standalone="no"?>
<!DOCTYPE svg PUBLIC "-//W3C//DTD SVG 1.1//EN" "http://www.w3.org/Graphics/SVG/1.1/DTD/svg11.dtd" >
<!--
2013-9-30: Created.
-->
<svg>
<metadata>
Created by iconfont
</metadata>
<defs>

<font id="iconfont" horiz-adv-x="1024" >
  <font-face
    font-family="iconfont"
    font-weight="500"
    font-stretch="normal"
    units-per-em="1024"
    ascent="896"
    descent="-128"
  />
    <missing-glyph />
    
    <glyph glyph-name="yinle4" unicode="&#58886;" d="M875.52 462.848q-7.168 1.024-12.8 10.24t-8.704 33.792q-5.12 39.936-26.112 58.88t-65.024 27.136q-46.08 9.216-81.408 37.376t-58.88 52.736q-22.528 21.504-34.816 15.36t-12.288-22.528l0-44.032 0-96.256q0-57.344-0.512-123.904t-0.512-125.952l0-104.448 0-58.368q1.024-24.576-7.68-54.784t-32.768-56.832-64-45.568-99.328-22.016q-60.416-3.072-109.056 21.504t-75.264 61.952-26.112 81.92 38.4 83.456 81.92 54.272 84.992 16.896 73.216-5.632 47.616-13.312l0 289.792q0 120.832 1.024 272.384 0 29.696 15.36 48.64t40.96 22.016q21.504 3.072 35.328-8.704t28.16-32.768 35.328-47.616 56.832-52.224q30.72-23.552 53.76-33.792t43.008-18.944 39.424-20.992 43.008-39.936q23.552-26.624 28.672-55.296t0.512-52.224-14.848-38.4-17.408-13.824z"  horiz-adv-x="1024" />

    
    <glyph glyph-name="gouwuchekong" unicode="&#58893;" d="M332.8 105.472q19.456 0 36.864-7.168t30.208-19.968 20.48-30.208 7.68-36.864-7.68-36.864-20.48-30.208-30.208-20.48-36.864-7.68q-20.48 0-37.888 7.68t-30.208 20.48-20.48 30.208-7.68 36.864 7.68 36.864 20.48 30.208 30.208 19.968 37.888 7.168zM758.784 103.424q19.456 0 37.376-7.168t30.72-19.968 20.48-30.208 7.68-36.864-7.68-36.864-20.48-30.208-30.72-20.48-37.376-7.68-36.864 7.68-30.208 20.48-20.48 30.208-7.68 36.864 7.68 36.864 20.48 30.208 30.208 19.968 36.864 7.168zM930.816 685.056q28.672 0 44.544-7.68t22.528-18.944 6.144-24.064-3.584-22.016-13.312-37.888-22.016-62.976-23.552-68.096-18.944-53.248q-13.312-40.96-33.28-56.832t-49.664-15.872l-35.84 0-65.536 0-86.016 0-96.256 0-253.952 0 14.336-92.16 517.12 0q49.152 0 49.152-41.984 0-20.48-9.728-35.84t-38.4-14.336l-49.152 0-94.208 0-118.784 0-119.808 0-99.328 0-55.296 0q-20.48 0-34.304 9.216t-23.04 24.064-14.848 32.256-8.704 32.768q-1.024 6.144-5.632 29.696t-11.264 58.88-14.848 78.848-16.384 87.552q-19.456 103.424-44.032 230.4l-76.8 0q-15.36 0-25.6 7.68t-16.896 18.432-9.216 23.04-2.56 22.528q0 20.48 13.824 33.792t37.376 12.288l103.424 0q20.48 0 32.768-6.144t19.456-15.36 10.24-18.944 5.12-16.896q2.048-8.192 4.096-23.04t4.096-30.208q3.072-18.432 6.144-38.912l700.416 0zM892.928 593.92l-641.024 2.048 35.84-185.344 535.552-1.024z"  horiz-adv-x="1028" />

    
    <glyph glyph-name="bofang" unicode="&#58899;" d="M512 832C264.576 832 64 631.424 64 384s200.576-448 448-448 448 200.576 448 448S759.424 832 512 832zM414.656 169.728 414.656 598.272l311.616-190.464L414.656 169.728z"  horiz-adv-x="1024" />

    
    <glyph glyph-name="yuleyinlediantai" unicode="&#59720;" d="M876.547502 78.192014C916.962119 144.482051 938.666667 220.681099 938.666667 300 938.666667 535.641493 747.641492 726.666667 512 726.666667 276.358507 726.666667 85.333333 535.641493 85.333333 300 85.333333 224.704168 104.88777 152.189759 141.514484 88.238558 149.321906 74.606595 166.701963 69.884871 180.333926 77.692294 193.96589 85.499716 198.687614 102.879772 190.880191 116.511735 159.151077 171.9116 142.222222 234.689471 142.222222 300 142.222222 504.222628 307.777372 669.777778 512 669.777778 716.222626 669.777778 881.777778 504.222628 881.777778 300 881.777778 231.203209 862.988029 165.237259 827.973988 107.805514 819.796446 94.392309 824.040789 76.889549 837.453995 68.712007 850.8672 60.534465 868.36996 64.778809 876.547502 78.192014ZM730.721468 179.43831C754.972803 219.216538 768 264.951657 768 312.531482 768 453.916377 653.384895 568.531481 512 568.531481 370.615105 568.531481 256 453.916377 256 312.531482 256 267.365584 267.736589 223.842378 289.715625 185.466405 297.523047 171.834442 314.903104 167.112718 328.535067 174.920141 342.167031 182.727563 346.888755 200.10762 339.081333 213.739583 321.999896 243.56422 312.888889 277.350886 312.888889 312.531482 312.888889 422.49751 402.033971 511.642592 512 511.642592 621.966029 511.642592 711.111111 422.49751 711.111111 312.531482 711.111111 275.473766 700.99871 239.971746 682.147954 209.05181 673.970412 195.638605 678.214756 178.135845 691.627961 169.958303 705.041166 161.780762 722.543926 166.025105 730.721468 179.43831ZM455.111111-126.666667C502.239408-126.666667 540.444444-94.829138 540.444444-55.555556 540.444444-16.281973 502.239408 15.555556 455.111111 15.555556 407.982814 15.555556 369.777778-16.281973 369.777778-55.555556 369.777778-94.829138 407.982814-126.666667 455.111111-126.666667ZM449.094531 61.138315C375.586637 61.138315 313.618576 12.609675 313.618576-51.125015 313.618576-114.859702 375.586637-163.388342 449.094531-163.388342 522.602425-163.388342 584.570487-114.859702 584.570487-51.125015 584.570487 12.609675 522.602425 61.138315 449.094531 61.138315L449.094531 61.138315ZM449.094531 4.249426C493.810378 4.249426 527.681599-22.27592 527.681599-51.125015 527.681599-79.974107 493.810378-106.499453 449.094531-106.499453 404.378684-106.499453 370.507466-79.974107 370.507466-51.125015 370.507466-22.27592 404.378684 4.249426 449.094531 4.249426L449.094531 4.249426ZM584.617298-33.407414 593.966783 283.56443C594.429952 299.267032 582.07595 312.371979 566.373345 312.835149 550.67074 313.298315 537.565793 300.944313 537.102626 285.241711L527.753139-31.730136C527.289973-47.432738 539.643975-60.537685 555.34658-61.000855 571.049182-61.464021 584.154129-49.110019 584.617298-33.407414L584.617298-33.407414ZM637.368971 334.119305C622.799889 331.97093 610.099769 329.279283 598.127511 325.977876 588.768458 323.397072 566.74281 315.973177 563.68714 315.230211 548.422446 311.518692 539.056748 296.13543 542.768267 280.870736 546.479787 265.606039 561.863046 256.240341 577.127743 259.951861 583.144257 261.414738 606.295731 269.218102 613.250449 271.1359 622.999646 273.824287 633.422174 276.033223 645.668133 277.839027 661.209503 280.130779 671.950441 294.587378 669.658689 310.128748 667.36694 325.670116 652.910342 336.411056 637.368971 334.119305L637.368971 334.119305Z"  horiz-adv-x="1024" />

    
    <glyph glyph-name="diantai" unicode="&#59124;" d="M879.232 96.608c40.64 66.752 62.528 143.488 62.528 223.36 0 237.312-192.384 429.76-429.76 429.76-237.312 0-429.696-192.384-429.696-429.76 0-75.84 19.712-148.864 56.576-213.248 7.936-13.76 25.344-18.496 39.104-10.624 13.696 7.808 18.496 25.344 10.624 39.04-32 55.744-49.024 119.04-49.024 184.832 0 205.632 166.784 372.416 372.416 372.416 205.76 0 372.352-166.784 372.352-372.416 0-69.312-18.88-135.744-54.144-193.536-8.256-13.504-4.032-31.104 9.472-39.424C853.248 78.816 870.848 83.104 879.232 96.608zM732.224 198.56c24.512 40.064 37.632 86.144 37.632 134.08 0 142.464-115.392 257.856-257.856 257.856-142.4 0-257.792-115.392-257.792-257.856 0-45.504 11.84-89.344 33.92-128 7.872-13.76 25.344-18.432 39.104-10.56 13.76 7.808 18.496 25.344 10.688 39.04C320.64 263.2 311.424 297.184 311.424 332.64 311.424 443.424 401.28 533.152 512 533.152s200.512-89.728 200.512-200.512c0-37.312-10.112-73.152-29.12-104.256-8.256-13.504-4.032-31.104 9.472-39.36C706.496 180.768 724.096 185.056 732.224 198.56zM678.144 160.48c-1.984 9.792-6.976 19.392-15.488 28.544C654.144 198.56 646.4 205.472 639.36 209.76S625.28 217.632 618.112 220.576C611.008 223.584 603.264 226.848 595.008 230.432c-8.384 3.52-17.92 9.344-28.992 17.472C553.152 256.672 542.912 265.696 535.36 274.912 527.808 284.064 521.472 292.256 516.288 299.488 511.36 306.528 501.312 321.44 496.448 325.536l0-0.448C492.544 329.952 486.72 333.216 479.936 333.216c-12.032 0-21.696-9.6-21.696-21.504l0-308.352c-19.2 11.712-43.136 18.88-69.632 18.88-62.144 0-112.576-38.528-112.576-86.016s50.432-85.952 112.576-85.952c62.144 0 112.512 38.464 112.512 85.952 0 0 0.512 9.408 0.512 10.304l0 274.56c0.576 4.864 2.368 6.336 4.224 7.104C510.336 230.304 516.48 227.68 524.608 220.256c8.384-8.448 19.008-17.536 31.68-27.264 12.736-9.728 27.264-16.192 43.968-19.328 15.744-2.88 27.392-7.552 35.008-14.08 7.488-6.592 12.224-16.768 14.016-30.528 1.152-8.576 2.752-14.4 4.736-17.472 1.984-3.2 4.224-4.928 6.848-5.312 2.624-0.32 5.76 2.048 9.344 7.168s6.4 11.84 7.872 19.904C680 141.472 679.872 150.496 678.144 160.48z"  horiz-adv-x="1024" />

    
    <glyph glyph-name="xihuan" unicode="&#59130;" d="M674.446789 652.47168c-67.680449 0-120.868835-33.712823-162.287153-89.297792-41.395806 55.601342-94.569866 89.297792-162.28613 89.297792-122.002658 0-221.258243-107.752096-221.258243-240.209874 0-79.019705 35.549657-134.455271 64.12753-178.992627 83.053578-129.370463 282.138822-269.090645 290.984281-275.880281 8.521071-6.53995 18.482957-9.813506 28.42233-9.813506 9.961886 0 19.908422 3.273557 28.41926 9.813506 8.856715 6.789637 207.956286 146.509818 290.985304 275.880281 28.591175 44.541449 64.153112 99.972922 64.153112 178.992627C895.706055 544.720607 796.445354 652.47168 674.446789 652.47168L674.446789 652.47168zM796.407492 263.348242c-80.738859-125.807311-284.776905-268.026406-284.776905-268.026406s-204.01451 142.219095-284.780998 268.026406c-29.788443 46.442752-56.458873 90.588181-56.458873 151.582347 0 105.32379 78.646198 190.739159 175.679162 190.739159 71.709205 0 123.149784-46.713928 150.457734-113.590058l0 0.331551 0.072655 0c2.034333-6.971785 7.966439-12.057617 15.030321-12.057617 7.087419 0 13.018501 5.085832 15.038508 12.057617l0.207731 0c27.373441 66.677609 78.729086 113.258507 150.33903 113.258507 97.009428 0 175.679162-85.414345 175.679162-190.739159C852.893994 353.936423 826.218448 309.790994 796.407492 263.348242L796.407492 263.348242zM791.152814 263.843522"  horiz-adv-x="1024" />

    
    <glyph glyph-name="shipin" unicode="&#59058;" d="M1001.761391 563.168c-21.615304 13.55687-50.086957 13.55687-78.135652 0l-206.536348-99.750957 0 41.115826c0 61.373217-49.93113 111.304348-111.304348 111.304348L123.035826 615.837217c-61.373217 0-111.304348-42.896696-111.304348-95.632696l0-433.797565c0-63.465739 28.761043-111.304348 66.938435-111.304348l44.677565 0 0 44.521739L78.669913 19.624348c-4.429913 0-22.416696 21.481739-22.416696 66.782609L56.253217 520.204522c0 27.714783 30.586435 51.110957 66.782609 51.110957l482.749217 0c36.819478 0 66.782609-29.96313 66.782609-66.782609l0-418.125913c0-36.819478-29.96313-66.782609-66.782609-66.782609L262.633739 19.624348l0-44.521739 343.151304 0c61.373217 0 111.304348 49.93113 111.304348 111.304348l0 40.96 206.60313-100.663652c14.113391-6.878609 28.315826-10.306783 41.71687-10.306783 13.222957 0 25.644522 3.33913 36.374261 10.061913 21.593043 13.490087 33.970087 39.112348 33.970087 70.299826L1035.753739 492.801391C1035.731478 523.966609 1023.354435 549.61113 1001.761391 563.168zM991.209739 96.758261c0-15.493565-4.763826-27.358609-13.04487-32.545391-8.325565-5.164522-21.058783-4.251826-34.971826 2.515478L717.089391 176.897391 717.089391 413.997913l225.881043 109.078261c13.957565 6.722783 26.779826 7.613217 35.105391 2.381913 8.347826-5.231304 13.133913-17.14087 13.133913-32.656696L991.209739 96.758261zM172.78887 454.802087m-32.300522 0a1.451 1.451 0 1 0 64.601043 0 1.451 1.451 0 1 0-64.601043 0ZM816.64 178.500174"  horiz-adv-x="1036" />

    
    <glyph glyph-name="yinle5" unicode="&#58917;" d="M395.473053-51.106726c-102.879112 0-186.582489 65.00348-186.582489 144.900158s83.703377 144.900158 186.582489 144.900158 186.573279-65.00348 186.573279-144.900158S498.352165-51.106726 395.473053-51.106726zM395.473053 201.130066c-82.171488 0-149.017942-48.14758-149.017942-107.336634 0-59.189054 66.846454-107.336634 149.017942-107.336634 82.162278 0 149.008732 48.14758 149.008732 107.336634C544.481785 152.983509 477.635331 201.130066 395.473053 201.130066zM569.502645 86.622102l-37.862329 75.128071L531.640316 800.57465c0 8.80248 12.372795 16.391319 21.103644 18.166755 8.730848 1.720178 20.584827-2.752694 24.087605-10.867512 53.365418-122.94717 121.416304-155.1148 169.994696-178.588421 29.438473-14.236236 55.632041-26.53433 64.86738-54.69981 10.93198-33.308617-3.543709-80.817654-54.44296-175.309748l-32.970926 17.423835c43.112913 80.038918 59.32106 125.193327 52.351322 146.43921-4.145413 12.624529-24.143886 19.942191-50.794873 32.819476-40.939411 19.796882-100.051717 47.744397-156.333558 128.743176L569.502645 86.622102z"  horiz-adv-x="1024" />

    
    <glyph glyph-name="zhuanji" unicode="&#59056;" d="M0 896l0-1024 1045.787234 0L1045.787234 896 0 896zM980.425532-62.638298 65.361702-62.638298 65.361702 830.638298l915.06383 0L980.425532-62.638298zM523.808681 736.604596c-191.313702 0-346.395234-155.081532-346.395234-346.417021 0-191.270128 155.081532-346.373447 346.395234-346.373447 191.313702 0 346.373447 155.103319 346.373447 346.373447C870.182128 581.523064 715.122383 736.604596 523.808681 736.604596zM523.808681 90.003064c-165.779064 0-300.228085 134.405447-300.228085 300.184511 0 165.822638 134.427234 300.228085 300.228085 300.228085 165.800851 0 300.184511-134.405447 300.184511-300.228085C823.993191 224.408511 689.609532 90.003064 523.808681 90.003064zM629.433191 605.162213c0 0 166.585191-35.077447 147.150979-211.989787l-33.574128 6.165787c0 0 24.401702 127.193872-119.067234 170.61583L629.433191 605.162213zM597.209872 529.059404c0 0 107.890383-22.724085 95.275574-137.303149l-21.721872 3.965277c0 0 15.817532 82.399319-77.105021 110.483064L597.209872 529.059404zM569.518298 446.507574c0 0 38.999149-8.213787 34.42383-49.653106l-7.843404 1.394383c0 0 5.708255 29.804936-27.865872 39.979574L569.518298 446.507574z"  horiz-adv-x="1046" />

    
    <glyph glyph-name="dengji" unicode="&#58921;" d="M819.739896 342.557122c22.51069 45.163619 26.055422 94.005001 26.055422 147.724483 0 187.556677-144.793734 341.370855-335.046822 341.370855-190.259228 0-335.051939-153.788595-335.051939-341.370855 0-53.725622 3.544733-102.58747 26.055422-147.754159L74.54888 123.622808c0 0 87.035262-32.030507 177.007413-50.573839 59.995419-66.792219 108.715027-138.565892 108.715027-138.565892l118.865201 227.069599c7.28901-0.450255 17.881253 0 25.286919 0 7.401574 0 18.026562-0.450255 25.286919 0l126.433574-214.937281c0 0 53.82079 59.612703 113.790626 126.433574 89.971128 18.542308 177.007413 50.573839 177.007413 50.573839L819.739896 342.557122 819.739896 342.557122zM352.702947 22.47513c0 0-42.168402 54.16769-82.652442 93.556792-57.419757 16.32685-132.284839 32.876782-132.284839 32.876782l88.503706 151.720494c46.87868-61.185524 123.854842-118.955252 201.684442-137.91814L352.702947 22.47513zM504.423441 199.482543c-74.065879 0-283.646152 44.283576-290.798039 290.798039-4.497431 155.01247 136.116097 303.440987 290.798039 303.440987 154.677848 0 302.545594-148.366096 303.440987-303.440987C809.218262 255.811456 578.490344 199.482543 504.423441 199.482543zM656.143934 22.47513l-75.860758 139.077545c77.831646 18.962887 168.063717 77.892021 214.937281 139.077545l88.503706-151.720494c-0.025583 0.030699-74.865081-16.524348-132.284839-32.876782L656.143934 22.47513zM510.748497 691.389926c-108.394732 0-196.260919-87.917352-196.260919-196.367343 0-108.451014 87.866187-196.367343 196.260919-196.367343 108.389616 0 196.255803 87.915305 196.255803 196.367343C707.003276 603.472574 619.137089 691.389926 510.748497 691.389926L510.748497 691.389926zM517.067412 338.560088c-48.697095 0-156.248623 19.271926-164.364465 164.363442-4.325515 77.329203 86.952374 151.720494 164.364465 151.720494 77.407997 0 149.762909-86.938048 151.720494-164.363442C671.357428 388.659113 565.764508 338.560088 517.067412 338.560088z"  horiz-adv-x="1024" />

    
    <glyph glyph-name="vertical_line" unicode="&#58938;" d="M531.185-47.532c0-8.9-6.494-16.114-14.503-16.114h-9.364c-8.010 0-14.504 7.214-14.504 16.114v863.066c0 8.899 6.494 16.114 14.504 16.114h9.364c8.009 0 14.503-7.215 14.503-16.114v-863.066z"  horiz-adv-x="1024" />

    
    <glyph glyph-name="weibo" unicode="&#58988;" d="M512 896C229.243259 896 0 666.775704 0 384s229.243259-512 512-512 512 229.224296 512 512S794.756741 896 512 896zM460.8 117.76c-175.312593 0-317.44 91.685926-317.44 204.781037 0 113.095111 212.859259 291.688296 294.286222 291.688296 34.133333 0 101.148444-25.448296 54.272-106.078815-3.280593-5.632 105.718519 46.895407 165.300148 12.344889 59.600593-34.550519 0-90.055111 0-96.218074 0-6.162963 119.656296-6.162963 119.656296-101.717333C776.874667 209.445926 636.112593 117.76 460.8 117.76zM710.276741 536.538074c-19.740444 23.438222-55.030519 17.957926-55.030519 17.957926-10.334815-0.094815-18.375111 7.111111-19.797333 16.839111-0.132741-0.986074-0.568889-1.896296-0.568889-2.901333l0 5.707852c0-1.005037 0.436148-1.85837 0.568889-2.806519 1.422222 9.993481 9.53837 18.792296 19.740444 20.138667 0 0 42.723556 11.681185 79.739259-21.636741 37.015704-33.317926 21.864296-88.405333 21.864296-88.405333-1.592889-11.207111-12.553481-20.15763-23.931259-20.15763L730.832593 461.274074c-11.396741 0-18.033778 8.779852-14.904889 19.607704C715.927704 480.900741 729.998222 513.099852 710.276741 536.538074zM850.62163 465.73037c-1.422222-15.587556-15.018667-28.273778-30.511407-30.01837 1.137778-0.132741 2.23763-0.341333 3.432296-0.341333l-6.97837 0c1.194667 0 2.37037 0.208593 3.546074 0.341333-15.018667 1.744593-25.125926 14.449778-22.945185 30.056296 0 0 16.70637 64.606815-23.988148 123.031704-40.713481 58.424889-128.208593 48.336593-128.208593 48.336593-15.54963 0.018963-28.596148 11.45363-30.245926 26.718815-0.113778-1.080889-0.32237-2.123852-0.32237-3.223704l0 6.409481c0-1.099852 0.208593-2.123852 0.32237-3.185778 1.649778 15.265185 14.506667 27.439407 30.340741 27.553185 0 0 91.098074 9.197037 158.947556-54.954667C871.860148 572.321185 850.62163 465.73037 850.62163 465.73037zM450.56 322.56m-20.48 0a1.08 1.08 0 1 0 40.96 0 1.08 1.08 0 1 0-40.96 0ZM403.303951 255.357556a1.62 2.159 0 1 0-25.964544 55.683072 1.62 2.159 0 1 0 25.964544-55.683072ZM432.033185 444.169481c-111.995259-15.739259-194.484148-87.514074-184.263111-160.331852 10.221037-72.817778 109.321481-119.087407 221.335704-103.329185 112.014222 15.739259 194.503111 87.514074 184.282074 160.331852C643.147852 413.639111 544.047407 459.908741 432.033185 444.169481zM448.398222 200.324741c-66.635852-12.951704-129.384296 21.560889-140.174222 77.065481-10.789926 55.523556 34.474667 111.009185 101.091556 123.960889 66.635852 12.970667 129.384296-21.541926 140.174222-77.065481C560.260741 268.781037 515.015111 213.276444 448.398222 200.324741z"  horiz-adv-x="1024" />

    
    <glyph glyph-name="zanting" unicode="&#58985;" d="M512 896C230.4 896 0 665.6 0 384s230.4-512 512-512 512 230.4 512 512S793.6 896 512 896zM454.4 172.8c0-19.2-19.2-32-44.8-32-25.6 0-44.8 12.8-44.8 32L364.8 595.2c0 19.2 19.2 32 44.8 32 25.6 0 44.8-12.8 44.8-32L454.4 172.8zM665.6 172.8c0-19.2-19.2-32-44.8-32-25.6 0-44.8 12.8-44.8 32L576 595.2c0 19.2 19.2 32 44.8 32 25.6 0 44.8-12.8 44.8-32L665.6 172.8z"  horiz-adv-x="1024" />

    
    <glyph glyph-name="shipinbofangyingpian" unicode="&#59279;" d="M832 768 128 768C57.344 768 0 710.656 0 640l0-576c0-70.656 57.344-128 128-128l704 0c70.656 0 128 57.344 128 128L960 640C960 710.656 902.656 768 832 768zM896 64c0-35.392-28.608-64-64-64L128 0c-35.392 0-64 28.608-64 64L64 640c0 35.392 28.608 64 64 64l704 0c35.392 0 64-28.608 64-64L896 64zM368.448 571.456C358.592 577.344 346.24 577.472 336.192 571.904 326.208 566.208 320 555.52 320 544l0-384c0-11.584 6.208-22.144 16.192-27.904C341.12 129.344 346.56 128 352 128c5.696 0 11.392 1.472 16.448 4.544l320.064 192C698.048 330.304 704 340.736 704 352s-5.952 21.632-15.488 27.456L368.448 571.456zM384 216.512 384 487.488 609.792 352 384 216.512z"  horiz-adv-x="1024" />

    
    <glyph glyph-name="yinle" unicode="&#58948;" d="M844.743872 831.358771l-483.775168-80.814584c-1.567705-0.25071-3.031033-0.710175-4.453429-1.254573l-17.475 0c-11.915377 0-21.38403-9.532097-21.38403-21.280676l0-553.029462c-18.875906 10.912537-40.825824 17.140379-64.216557 17.140379-70.927399 0-128.433114-57.359382-128.433114-128.139425S182.512289-64.15695 253.439688-64.15695c70.926376 0 128.433114 57.359382 128.433114 128.139425 0 5.184069-0.314155 10.285251-0.899486 15.259542 0.585331 1.964748 0.899486 4.013407 0.899486 6.187933l0 449.764564 449.513854 79.267345 0-311.298955c-18.875906 10.870582-40.825824 17.142425-64.216557 17.142425-70.927399 0-128.433114-57.401338-128.433114-128.183428 0-70.738088 57.505715-128.139425 128.433114-128.139425 70.926376 0 128.432091 57.401338 128.432091 128.139425 0 5.184069-0.313132 10.285251-0.898463 15.301498 0.585331 1.966795 0.898463 4.015454 0.898463 6.187933l0 597.97307c0 10.45205-7.587815 19.190061-17.579377 20.946055-3.491521 2.173502-7.881504 3.051499-12.710486 2.257413l-11.370978-1.922792-1.170662 0C849.927941 832.864054 847.21004 832.320679 844.743872 831.358771z"  horiz-adv-x="1024" />

    
    <glyph glyph-name="tuichu5" unicode="&#58960;" d="M1008 390.2 1008 390.2 1008 390.2zM507.528-110.264 507.528-110.264c-250.512 0-453.56 203.016-453.56 453.56 0 189.616 116.408 351.984 281.52 419.72l0-0.112c4.88 1.744 10.144 2.68 15.664 2.68 25.84 0 46.936-20.992 46.936-46.896 0-20.392-13.056-37.832-31.336-44.264l0-0.032c-128.664-54.736-218.944-182.384-218.944-331.064 0-198.688 161.032-359.72 359.72-359.72 198.696 0 359.728 161.064 359.728 359.72 0 148.68-90.216 276.304-218.984 331.064l0 0c-18.24 6.4-31.264 23.84-31.264 44.256 0 25.912 20.984 46.904 46.904 46.904 5.456 0 10.68-0.936 15.632-2.68l0 0.112c165.248-67.744 281.52-230.112 281.52-419.72C961.104 92.752 758.016-110.264 507.528-110.264M507.528 374.56c-25.872 0-46.896 21-46.896 46.944L460.632 699.096 460.632 793.952 460.632 843.76c-0.032 25.848 21.024 46.904 46.896 46.904 25.912 0 46.904-21.032 46.904-46.904l0-140.776 0-93.832 0-187.624C554.44 395.592 533.448 374.56 507.528 374.56"  horiz-adv-x="1024" />

    
    <glyph glyph-name="yinliang" unicode="&#58978;" d="M218.495828 561.390129c-0.390903 0.019443-0.773619 0.019443-1.164522 0.019443L100.022553 561.409572c-21.744233 0-39.087227-17.448394-39.087227-39.001269l0-273.866415c0-21.551852 17.505699-38.999223 39.087227-38.999223l117.308753 0c0.057305 0 0.113587 0 0.171915 0l0-0.153496 287.22056-185.975668c6.824429-5.842055 15.691377-9.354042 25.370831-9.354042 21.590737 0 39.096437 17.505699 39.096437 39.095413 0 1.794879-0.124843 3.551896-0.354064 5.270027L568.836985 712.526315c0.229221 1.718131 0.354064 3.475148 0.354064 5.269004 0 21.590737-17.505699 39.096437-39.096437 39.096437-8.895601 0-17.105586-2.977821-23.682375-7.979742L218.495828 561.390129zM757.858012-57.491133l0.085958-0.075725c123.876332 107.514689 202.211445 266.13329 202.211445 443.041442 0 177.214121-78.603219 336.062965-202.851011 443.61654l-0.11461-0.11461c-4.963035 3.817955-11.17655 6.109138-17.925255 6.109138-16.197914 0-29.322839-13.133112-29.322839-29.321816 0-6.757914 2.28095-12.981662 6.109138-17.926278l-0.333598-0.342808c0.821715-0.706081 1.641383-1.393743 2.462075-2.119267 1.173732-1.202385 2.452865-2.329045 3.817955-3.321652 110.054535-96.710622 179.51349-238.550071 179.51349-396.578224 0-158.02713-69.458955-299.866578-179.51349-396.577201-1.36509-0.99363-2.644223-2.118244-3.817955-3.321652-0.600681-0.533143-1.212618-1.048889-1.822508-1.564635l0.229221-0.230244c-4.152577-5.058203-6.643304-11.530614-6.643304-18.593474 0-16.188704 13.124925-29.321816 29.322839-29.321816C746.317165-64.134437 752.798786-61.651896 757.858012-57.491133zM713.998085 166.64567l0.23843-0.24764c55.380308 56.43022 89.532129 133.76454 89.532129 219.077577 0 85.409229-34.228569 162.800853-89.704045 219.249493l-0.268106-0.267083c-4.886287 3.64604-10.966773 5.821589-17.543561 5.821589-16.197914 0-29.322839-13.133112-29.322839-29.321816 0-6.566556 2.166339-12.657274 5.822612-17.544585l-0.162706-0.170892c0.773619-0.782829 1.547239-1.584078 2.310625-2.38635 0.075725-0.076748 0.152473-0.171915 0.23843-0.248663 43.3626-45.587268 69.983911-107.248629 69.983911-175.132716 0-67.884087-26.621311-129.544425-69.983911-175.131693-0.085958-0.077771-0.162706-0.171915-0.23843-0.24764-0.706081-0.74599-1.422396-1.471514-2.13871-2.214435l0.144286-0.134053c-3.751441-4.926196-5.976108-11.092639-5.976108-17.754363 0-16.188704 13.124925-29.321816 29.322839-29.321816C702.925912 160.671609 709.072913 162.886043 713.998085 166.64567z"  horiz-adv-x="1024" />

    
    <glyph glyph-name="xihuan1" unicode="&#58907;" d="M731.43552 713.15072c49.16352 0 95.36512-19.16032 130.14272-53.9136 71.74912-71.744 71.74912-188.512 0-260.29056l-42.69312-42.69056L669.40928 206.77504 519.96032 57.3568c-0.17024-0.17024-0.57472-0.576-2.09792-0.576l-0.08704 0-5.14944 0.37376-4.71936-0.4032c-1.26464 0-1.69856 0.4352-1.87008 0.60544L356.38528 206.77504 163.9872 398.97472C129.1776 433.728 109.9904 479.92832 109.9904 529.09312s19.1872 95.36512 53.96608 130.11712c34.81088 34.77888 81.12512 53.94048 130.37696 53.94048s95.54048-19.16032 130.34624-53.94048l42.78144-42.72 4.91648-4.92032 40.62208-40.50304 40.6208 40.50304 5.00352 4.97792 42.63296 42.68928C636.06528 693.98912 682.26688 713.15072 731.43552 713.15072M731.43552 770.68544c-61.7984 0-123.648-23.58912-170.82752-70.76864l-42.66368-42.69056-0.0256 0-4.89088-4.92032-4.92032 4.92032-0.03072 0-42.72 42.69056c-47.23712 47.17952-109.11744 70.76864-170.99392 70.76864-61.91232 0-123.81952-23.58912-171.02464-70.76864-94.47936-94.3296-94.47936-247.31648 0-341.64608L315.7376 166.06976l0.03072 0 149.62176-149.41952c11.7632-11.7376 27.12704-17.43488 42.54848-17.43488 1.72544 0 3.42016 0.08704 5.14944 0.23296 1.69472-0.14464 3.424-0.23296 5.11872-0.23296 15.36256 0 30.72256 5.69728 42.46144 17.43488l149.44896 149.41952 0.20224 0.20224 149.27744 149.2736 42.69056 42.69312c94.33344 94.38592 94.33344 247.31648 0 341.64992C855.0784 747.09504 793.2544 770.68544 731.43552 770.68544L731.43552 770.68544 731.43552 770.68544zM731.43552 770.68544"  horiz-adv-x="1024" />

    
    <glyph glyph-name="tubiaoxiazaiguanli" unicode="&#58926;" d="M682.666667 166.4c-8.533333 0-14.933333 2.133333-21.333333 8.533333L441.6 403.2l40.533333 40.533333 170.666667-177.066667L652.8 746.666667l57.6 0 0-552.533333c0-12.8-6.4-21.333333-17.066667-27.733333C689.066667 166.4 686.933333 166.4 682.666667 166.4zM682.666667 166.4c-4.266667 0-6.4 0-10.666667 2.133333-10.666667 4.266667-17.066667 14.933333-17.066667 27.733333L654.933333 746.666667l57.6 0 0-480 170.666667 177.066667 40.533333-40.533333L704 174.933333C697.6 168.533333 691.2 166.4 682.666667 166.4zM994.133333 21.333333 362.666667 21.333333c-14.933333 0-29.866667 12.8-29.866667 29.866667L332.8 264.533333l57.6 0 0-185.6 576 0 0 185.6L1024 264.533333l0-215.466667C1024 34.133333 1011.2 21.333333 994.133333 21.333333z"  horiz-adv-x="1024" />

    
    <glyph glyph-name="ai10" unicode="&#59006;" d="M860.340081 738.60732l-499.349889-352.461447 499.349889-352.416422L860.340081 738.60732zM272.949021 738.60732l-117.523647 0 0-704.877869 117.523647 0L272.949021 738.60732z"  horiz-adv-x="1024" />

    
    <glyph glyph-name="changyonglogo28" unicode="&#59157;" d="M474.697931 432.866964c52.537564 55.155181 119.125121 74.453712 197.466374 70.189595-1.747807 8.009418-1.814322 14.22191-4.389984 19.11843-12.712533 24.170492-22.698978 50.789757-39.787168 71.474868-102.242616 123.764791-308.057121 138.461515-427.463652 31.18935-61.691037-55.423287-87.38421-124.68986-69.739341-206.809159 11.298324-52.575426 43.588751-92.715635 85.609797-124.551714 13.697977-10.382465 15.916505-19.665899 10.030447-34.608216-7.30436-18.535145-12.809747-37.781488-19.0908-56.720839 17.596773 3.874237 31.816636 9.761318 44.911886 17.542538 30.707372 18.24555 61.189617 28.17162 98.18623 16.900925 22.337751-6.800893 47.565319-4.123924 74.762751-5.92085C405.477406 310.513312 421.574013 377.090637 474.697931 432.866964zM497.939261 576.779631c19.834744 0.284479 31.798217-10.92277 32.226982-30.178323 0.442068-19.85521-10.726296-31.997762-29.841655-32.44597-21.970384-0.51677-38.566364 12.741185-38.723953 30.930453C461.449185 562.589444 477.38411 576.489012 497.939261 576.779631zM309.594639 514.162502c-21.693068-0.073678-37.788651 13.573133-37.541011 31.828916 0.233314 17.353227 16.143679 30.628578 36.897352 30.79333 19.576871 0.150426 33.157167-13.06148 32.867572-31.983435C341.537142 526.408407 328.722278 514.221854 309.594639 514.162502zM835.363224 424.500413c-81.796958 78.773088-215.099986 91.444689-312.212768 29.66974-125.474736-79.81379-124.392078-243.768933 2.771113-320.735885 61.081147-36.97103 127.145795-47.321772 196.581214-28.592198 14.377452 3.879354 26.002211 2.758834 38.630832-5.067412 17.174148-10.645454 35.464723-19.495006 53.278437-29.115108 1.274016 0.950651 2.548032 1.901303 3.822049 2.852978-4.882194 17.019629-10.796904 33.842783-14.117532 51.16531-1.249457 6.507204 1.530866 15.896038 5.932106 20.968567 11.326976 13.038968 25.615401 23.515576 36.914748 36.58115C913.685034 259.386888 908.943033 353.633389 835.363224 424.500413zM589.682755 331.021391c-14.864546-0.228197-26.891464 11.264555-26.424836 25.248034 0.456395 13.707187 11.322883 23.429619 26.14752 23.38971 16.312524-0.041956 29.684066-11.452843 29.205159-24.921599C618.16239 342.190779 604.82257 331.253682 589.682755 331.021391zM737.859539 330.990692c-13.485129 0.203638-26.317389 11.747555-26.63359 23.958668-0.340761 13.07069 12.692067 24.846898 27.374464 24.735357 16.766872-0.12996 28.897144-11.084453 28.241204-25.499767C766.255263 341.316875 753.061776 330.758402 737.859539 330.990692z"  horiz-adv-x="1024" />

    
    <glyph glyph-name="shouji" unicode="&#58919;" d="M768-128 256-128C204.567273-128 162.909091-86.341818 162.909091-34.909091L162.909091 104.727273 162.909091 151.272727 162.909091 197.818182 162.909091 802.909091C162.909091 854.341818 204.567273 896 256 896L768 896C819.432727 896 861.090909 854.341818 861.090909 802.909091L861.090909 197.818182 861.090909 151.272727 861.090909 104.727273 861.090909-34.909091C861.090909-86.341818 819.432727-128 768-128ZM814.545455 802.909091C814.545455 828.602182 793.693091 849.454545 768 849.454545L256 849.454545C230.306909 849.454545 209.454545 828.602182 209.454545 802.909091L209.454545 197.818182 814.545455 197.818182 814.545455 802.909091ZM814.545455 151.272727 209.454545 151.272727 209.454545-34.909091C209.454545-60.602182 230.306909-81.454545 256-81.454545L768-81.454545C793.693091-81.454545 814.545455-60.602182 814.545455-34.909091L814.545455 151.272727ZM512-34.909091C473.460364-34.909091 442.181818-3.630545 442.181818 34.909091 442.181818 73.448727 473.460364 104.727273 512 104.727273 550.539636 104.727273 581.818182 73.448727 581.818182 34.909091 581.818182-3.630545 550.539636-34.909091 512-34.909091Z"  horiz-adv-x="1024" />

    
    <glyph glyph-name="huiyuan" unicode="&#59007;" d="M933.237561 555.61419c-4.68962 5.355769-15.550857 18.066151-29.865751 34.800205-43.093383 50.365452-115.195497 134.661899-148.391391 170.441241-13.7161 14.804363-30.776534 33.210084-63.823328 34.515598-2.406169 0.081545-9.733201 0.35396-102.38918 0.35396-105.339979 0-254.124903-0.33957-254.057749-0.33957-15.754918 0-39.775432-3.574776-66.243687-34.555371-19.412438-22.756771-49.563796-57.570167-80.082304-92.805878-38.87884-44.887366-78.327894-90.453872-96.870322-112.530504-32.230947-37.328691-33.033603-89.394191-2.107171-135.912451l2.053208-2.719156c36.513644-42.535361 115.9288-133.846052 209.727205-241.686736l145.795551-167.694703c26.929342-31.021168 48.190927-35.208129 65.441031-35.208129 18.121114 0 38.593234 4.268506 65.441031 35.194938l150.797359 173.472586c88.714052 101.995447 163.83432 188.357494 204.996812 236.290395C961.146039 450.397726 968.97613 512.522006 933.237561 555.61419zM891.096932 453.130074c-40.795341-47.497397-115.833865-133.777699-204.452981-235.650829l-150.81155-173.500167c-13.919962-16.027333-19.398248-16.027333-23.408529-16.027333-3.778838 0-9.488367 0-23.395138 16.027333l-145.822133 167.735475c-92.696752 106.577141-171.337833 196.990241-208.327754 240.041652-16.366903 25.420765-16.815599 49.29138-0.979136 67.629747 18.691327 22.239721 57.924127 67.548202 96.571525 112.177544 30.627634 35.358027 60.873728 70.293941 80.340329 93.104675 12.84609 15.034806 19.493983 15.034806 23.966351 15.034806 0 0 148.704378 0.33957 253.989395 0.33957 79.728344 0 97.087575-0.204062 100.283008-0.313188 8.659329-0.33957 11.949698-2.528486 25.094586-16.734054 32.435009-34.963295 104.102618-118.729501 146.909395-168.782965 14.504566-16.951307 25.5157-29.811788 29.784006-34.692079C907.137457 499.878778 903.889059 468.571804 891.096932 453.130074zM682.614084 501.176099l-170.78201-218.719908-170.561759 219.314505c-1.742019 2.740542-2.268262 2.740542-4.739587 2.740542l-83.213381 0 0-38.453529 1.998045 0c15.731534 0 21.56338-4.092026 28.017604-12.705386 0.633371-0.865014 1.377866-1.850146 2.862859-3.6871 37.509169-50.997823 184.517497-229.654694 226.009366-285.296169 41.478677 55.681248 188.393269 234.461635 226.4011 285.999892 0.918977 1.092259 1.634892 2.0644 2.268262 2.916023 6.494996 8.654132 12.341233 12.773739 28.003414 12.773739l1.890918 0 0 38.518884-82.915583 0C685.516716 504.577592 684.814991 504.577592 682.614084 501.176099z"  horiz-adv-x="1024" />

    
    <glyph glyph-name="pifushezhi" unicode="&#58906;" d="M328.147627 731.293013h67.403093c4.973227-2.94912 12.22656-4.068693 16.75264-7.5776 6.161067-4.734293 10.58816-10.738347 15.407787-16.892586 6.509227-8.2944 18.7904-16.3328 29.125973-20.657494 12.079787-4.98688 24.90368-7.8336 39.717547-10.581333 4.672853-0.303787 9.345707-0.508587 14.015146-0.812373 6.263467-0.965973 15.213227 0.559787 20.3776 1.62816 27.886933 5.597867 41.857707 10.175147 60.197547 24.726186 7.15776 5.748053 10.98752 15.213227 18.438827 20.70528 4.17792 2.286933 8.400213 4.67968 12.62592 7.021227 3.628373 1.42336 6.212267 0.610987 9.19552 2.440533h19.831466c19.135147 0 47.571627 2.594133 60.197547-4.017493 8.895147-4.78208 15.70816-12.311893 22.667947-19.07712 9.693867-9.41056 19.38432-18.824533 29.026986-28.235093 31.26272-30.47424 62.580053-60.89728 93.794987-91.37152 9.844053-10.530133 21.22752-19.636907 31.020373-30.221654 8.04864-8.495787 16.59904-14.854827 21.02272-27.163306 0.150187-1.98656 0.201387-3.969707 0.249174-5.956267 2.235733-13.431467-3.877547-23.197013-10.042027-30.982827-26.19392-25.38496-52.391253-50.82112-78.63296-76.158293-9.54368-10.635947-21.47328-25.439573-38.324907-28.53888-22.96832-4.225707-35.986773 9.919147-46.721706 20.34688-3.4816 3.457707-6.413653 7.8848-10.93632 10.379947-0.197973-0.2048-0.546133-0.4096-0.846507-0.5632v-272.182614c-0.047787-25.53856-0.146773-51.17952-0.293547-76.71808-1.839787-8.8576-7.60832-18.01216-13.919573-22.84544-15.755947-11.905707-43.543893-9.25696-71.427413-9.25696H371.2c-19.43552 0-39.867733-1.47456-51.49696 6.048427-6.51264 4.072107-13.6704 11.70432-16.554667 19.28192-3.280213 8.751787-2.484907 20.964693-2.484906 32.6144v51.38432 271.981227h-1.143467c-11.58144-10.175147-20.48-22.79424-36.037973-29.15328-13.21984-5.440853-28.678827 0.252587-36.928854 5.952853-5.76512 4.068693-10.141013 9.311573-15.110826 14.144853a23320.081067 23320.081067 0 0 1-35.488427 33.98656 1789.088427 1789.088427 0 0 0-16.800427 16.940374c-6.908587 5.799253-12.92288 12.417707-19.285333 18.722133-7.703893 7.529813-16.104107 13.380267-20.72576 23.965013-1.989973 4.478293-5.915307 12.56448-4.47488 20.094294 3.382613 17.855147 14.465707 27.26912 25.746773 37.290666 6.710613 5.901653 12.62592 12.76928 19.285334 18.71872l111.09376 108.21632c6.710613 6.509227 13.421227 13.021867 20.13184 19.585707 9.741653 9.458347 18.438827 21.162667 37.229226 21.77024-0.006827 0.3584-0.006827 0.662187-0.006826 1.017173z"  horiz-adv-x="1024" />

    
    <glyph glyph-name="zhuanjigaikuang" unicode="&#58989;" d="M760.32 384c-0 137.143-111.177 248.32-248.32 248.32s-248.32-111.177-248.32-248.32c0-137.143 111.177-248.32 248.32-248.32 137.143 0 248.32 111.177 248.32 248.32zM512-43.392c-0 0-0 0-0 0-236.042 0-427.392 191.35-427.392 427.392 0 236.042 191.35 427.392 427.392 427.392 0 0 0-0 0-0 236.042-0 427.392-191.35 427.392-427.392 0-236.042-191.35-427.392-427.392-427.392zM512 312.768c0.636-0.020 1.384-0.032 2.135-0.032 39.34 0 71.232 31.892 71.232 71.232 0 39.34-31.892 71.232-71.232 71.232-0.751 0-1.499-0.012-2.244-0.035-38.302-1.185-68.988-32.608-68.988-71.197 0-38.59 30.686-70.012 68.988-71.197z"  horiz-adv-x="1024" />

    
    <glyph glyph-name="minimize_window" unicode="&#58942;" d="M984.615385-59.076923c0-15.753846-13.784615-29.538462-29.538462-29.538462h-886.153846c-15.753846 0-29.538462 13.784615-29.538462 29.538462v59.076923c0 15.753846 13.784615 29.538462 29.538462 29.538462h886.153846c15.753846 0 29.538462-13.784615 29.538462-29.538462v-59.076923z"  horiz-adv-x="1024" />

    
    <glyph glyph-name="geshou" unicode="&#58905;" d="M679.44448 747.7248a204.8 204.8 0 1 1 34.07872-81.22368 20.48 20.48 0 0 1-40.30464-7.3728 163.84 163.84 0 1 0-27.2384 64.9216 20.48 20.48 0 0 1 33.46432 23.63392zM880.64 15.36a368.64 368.64 0 0 1-617.75872 271.72864 20.48 20.48 0 1 1 27.68896-30.18752A326.0416 326.0416 0 0 0 512 343.04a327.68 327.68 0 0 0 327.68-327.68 20.48 20.48 0 1 1 40.96 0zM229.376 252.1088a367.16544 367.16544 0 0 1-86.016-236.7488 20.48 20.48 0 1 1 40.96 0c0 78.06976 27.36128 151.83872 76.47232 210.41152a20.48 20.48 0 0 1-31.37536 26.33728zM491.52 220.16v-81.92c0-11.264 9.216-20.48 20.48-20.48 11.4688 0 20.48 9.05216 20.48 20.48v81.92c0 11.264-9.216 20.48-20.48 20.48-11.4688 0-20.48-9.05216-20.48-20.48z m-40.96 0c0 33.91488 27.27936 61.44 61.44 61.44 33.91488 0 61.44-27.60704 61.44-61.44v-81.92c0-33.91488-27.27936-61.44-61.44-61.44-33.91488 0-61.44 27.60704-61.44 61.44v81.92zM491.52 97.28v-81.92a20.48 20.48 0 1 1 40.96 0v81.92a20.48 20.48 0 1 1-40.96 0z"  horiz-adv-x="1024" />

    
    <glyph glyph-name="MINIMIZE" unicode="&#59152;" d="M312.17664 502.90688a20.48 20.48 0 1 1 0 40.96h-77.2096a20.48 20.48 0 0 1-20.48-20.48v-449.55648a20.48 20.48 0 0 1 20.48-20.48h449.55648a20.48 20.48 0 0 1 20.48 20.48V150.9376a20.48 20.48 0 1 1-40.96 0v-56.6272h-408.576V502.90688h56.70912zM849.38752 708.68992H399.81056a20.48 20.48 0 0 1-20.48-20.48v-449.55648a20.48 20.48 0 0 1 20.48-20.48h449.55648a20.48 20.48 0 0 1 20.48 20.48V688.20992a20.43904 20.43904 0 0 1-20.45952 20.48z m-20.48-449.55648H420.29056V667.72992h408.59648v-408.59648z"  horiz-adv-x="1024" />

    
    <glyph glyph-name="diantai1" unicode="&#58974;" d="M925.156 161.052c44.205 71.585 70.398 158.358 70.398 251.25 0 267.060-216.495 483.556-483.556 483.556-267.060 0-483.556-216.495-483.556-483.556 0-88.247 23.639-170.974 64.931-242.192 4.429-7.441 14.834-13.899 26.748-13.899 17.817 0 32.261 14.444 32.261 32.261 0 5.903-1.586 11.437-4.354 16.197-34.619 59.553-55.1 131.242-55.1 207.715 0 231.463 187.638 419.1 419.1 419.1 231.463 0 419.1-187.638 419.1-419.1 0-80.489-22.69-155.679-62.022-219.522-1.461-2.664-2.932-8.007-2.932-13.694 0-17.814 14.442-32.256 32.256-32.256 11.075 0 20.847 5.582 26.655 14.085zM759.894 275.797c26.519 42.949 42.233 95.009 42.233 150.74 0 160.236-129.897 290.133-290.133 290.133-160.236 0-290.133-129.897-290.133-290.133 0-52.945 14.181-102.577 38.953-145.305 4.925-8.368 15.331-14.826 27.245-14.826 17.817 0 32.261 14.444 32.261 32.261 0 5.903-1.586 11.437-4.354 16.197-18.595 31.992-29.619 70.587-29.619 111.756 0 124.639 101.040 225.678 225.678 225.678 124.639 0 225.678-101.040 225.678-225.678 0-43.329-12.211-83.806-33.378-118.177-2.903-4.087-4.97-10.344-4.97-17.083 0-17.814 14.442-32.256 32.256-32.256 12.128 0 22.692 6.693 28.201 16.587zM604.303 372.679l-9.956-338.091c-0.095-2.71-0.508-5.282-1.202-7.736 0.86-3.3 1.145-7.795 1.145-12.346 0-72.249-70.258-127.26-153.6-127.26-83.285 0-153.486 55.012-153.486 127.26s70.201 127.204 153.543 127.204c33.963 0 65.764-9.102 91.534-24.86l8.192 278.869c0.364 12.126 7.365 22.535 17.481 27.75 4.566 3.727 10.367 6.244 16.718 6.907-0.635 0.159 24.396 8.578 34.978 11.536 13.54 3.698 27.932 6.77 44.487 9.216 1.798 0.356 3.865 0.559 5.98 0.559 17.814 0 32.256-14.442 32.256-32.256 0-16.614-12.561-30.295-28.705-32.063-14.025-2.061-25.858-4.564-36.894-7.636-4.21-1.138-13.596-4.21-22.471-7.054z"  horiz-adv-x="1024" />

    
    <glyph glyph-name="shipin1" unicode="&#58935;" d="M952.533333 599.253333zM100.544 661.056zM100.736 720.405333zM670.570667 722.922667c9.002667 0 18.090667-0.512 26.56-2.432 12.714667-2.965333 24.021333-8.469333 35.541333-17.258667 15.658667-11.861333 27.114667-30.592 33.130667-53.973333 3.605333-13.866667 3.072-29.632 2.666666-43.498667-0.128-4.352-0.234667-8.362667-0.234666-12.074667V554.666667l104.853333 72.810666 26.346667 18.218667c0.533333 0.32 1.365333 1.045333 2.218666 1.685333 4.565333 3.498667 11.413333 8.896 21.696 11.434667 3.392 0.853333 6.762667 1.28 10.368 1.28 9.962667 0 20.096-3.392 28.672-9.621333 19.477333-14.4 19.370667-36.608 19.370667-52.8v-426.837334c0-16.490667 0.106667-39.253333-20.309333-53.781333a50.112 50.112 0 0 0-28.16-8.661333c-5.184 0-10.453333 0.832-15.637334 2.837333-7.424 2.88-12.693333 7.125333-16.618666 10.197333a105.173333 105.173333 0 0 0-2.410667 1.898667l-25.813333 18.005333-104.554667 72.469334v-39.253334c0-3.712 0.106667-7.616 0.234667-11.861333 0.405333-15.253333 0.832-31.018667-2.986667-45.290667-5.802667-22.229333-17.237333-40.746667-32.170667-52.16-8.149333-6.250667-19.584-13.866667-35.242666-17.578666a111.061333 111.061333 0 0 0-25.301334-2.410667c-4.437333 0-8.874667 0.085333-13.098666 0.213333-3.797333 0.106667-7.402667 0.213333-10.581334 0.213334H147.733333c-17.130667 0-34.602667 0.618667-49.429333 6.762666-28.864 11.946667-48.341333 39.04-54.805333 76.074667l-0.384 2.261333v2.432l-0.32 58.730667V576.170667c0 4.544-0.106667 9.194667-0.106667 14.186666-0.32 27.925333-0.746667 56.832 9.642667 79.253334 10.154667 22.016 28.458667 39.36 50.368 47.509333 5.930667 2.218667 11.413333 2.858667 15.552 3.285333 1.066667 0.106667 2.432 0.32 3.157333 0.426667l4.245333 1.578667h518.037334c3.712 0 7.829333 0.085333 12.181333 0.32 4.544-0.021333 9.642667 0.192 14.698667 0.192m-368.853334-489.28l264.277334 131.861333v35.114667l-264.277334 132.053333v-299.029333m368.853334 531.605333c-5.802667 0-11.306667-0.213333-16.298667-0.32-4.010667-0.106667-7.722667-0.213333-10.794667-0.213333H117.909333l-6.656-2.432a100.053333 100.053333 0 0 1-23.509333-5.397334C55.488 744.832 28.501333 719.530667 13.696 687.381333c-14.293333-31.104-13.845333-66.346667-13.44-97.450666 0.106667-4.778667 0.106667-9.322667 0.106667-13.653334v-384.746666l0.32-58.730667v-5.909333l0.618666-3.477334 0.448-2.346666c4.330667-24.746667 13.226667-46.677333 26.346667-64.874667a124.906667 124.906667 0 0 1 53.845333-42.944c22.229333-9.216 45.504-9.962667 65.6-9.962667h501.461334c2.645333 0 5.802667-0.085333 9.322666-0.234666 4.330667-0.085333 9.216-0.298667 14.4-0.298667 13.76 0 24.981333 1.173333 35.114667 3.605333 23.594667 5.610667 40.426667 17.045333 51.008 25.066667 22.442667 17.130667 39.274667 43.818667 47.402667 75.114667a145.92 145.92 0 0 1 4.138666 26.24l38.08-26.453334 25.386667-17.664c0.32-0.213333 0.618667-0.512 0.96-0.725333 4.970667-3.818667 14.058667-11.029333 27.285333-16.213333a86.186667 86.186667 0 0 1 31.104-5.802667c18.645333 0 37.781333 6.016 52.586667 16.490667a86.378667 86.378667 0 0 1 34.197333 49.749333c3.946667 14.912 3.946667 28.565333 3.946667 38.634667v423.466666 3.178667c0 9.749333 0.106667 23.168-3.605333 37.781333-5.290667 20.416-16.32 37.034667-32.810667 49.322667a91.541333 91.541333 0 0 1-53.845333 17.877333c-6.976 0-13.952-0.853333-20.650667-2.538666a97.472 97.472 0 0 1-37.248-19.050667 2.773333 2.773333 0 0 0-0.725333-0.533333l-26.048-17.877334H848.810667l-38.421334-26.666666a131.712 131.712 0 0 1-3.818666 24.234666c-8.448 32.810667-25.194667 59.477333-48.469334 77.141334-16.298667 12.373333-33.109333 20.522667-51.52 24.768a172.074667 172.074667 0 0 1-36.010666 3.349333z m-326.506667-463.146667V464.213333l162.410667-81.152-162.410667-80.96zM347.456 429.184v-121.152 121.152z"  horiz-adv-x="1024" />

    
    <glyph glyph-name="suiji" unicode="&#58880;" d="M820.5873649024963 252.17420408248904a30.119440927505494 30.119440927505494 0 0 1-23.42623208999634 10.131084022521973c-16.91556478500366-0.6388972949981688-30.058593749999993-14.907602519989016-29.419696455001834-31.823166532516474 0.36508383750915524-9.218374042510987 4.928636054992676-17.037259912490846 11.560997714996338-22.391826982498166l36.447565927505494-36.47798990249634a223.4010668849945 223.4010668849945 0 0 0-107.578125 47.73475095748902L372.7204028224945 580.9324666500092A285.3436751174927 285.3436751174927 0 0 1 158.17262614250183 678.1969653224945a30.423677587509154 30.423677587509154 0 1 1 0-60.84735594749451h0.030423974990844725c64.61989176750183 0 126.10614500999452-27.898512382507327 169.33819092750548-77.15444741249084l334.9646932125092-361.5245638275146 6.3889729499816905-5.780498857498169a285.556640625 285.556640625 0 0 1 149.8974609375-63.15955564498903l-40.585186357498166-39.45951009750366 0.7605916500091553-0.7301684474945069a30.180288105010987 30.180288105010987 0 0 1-13.599383955001832-26.04266767501831c0.6693212699890136-16.91556478500366 14.907602519989016-30.119440927505494 31.792743330001834-29.450120429992673a30.058593749999993 30.058593749999993 0 0 1 23.152418632507324 12.899639482498168l0.30423666000366206-0.30423666000366206 114.697265625 111.41150799751281-114.36260499000551 114.4843001174927-0.36508383750915524-0.36508383750915524zM820.3439754199983 755.7469197750092a30.119440927505494 30.119440927505494 0 0 1-23.18284260749817 12.899639482498168 30.63664386749268 30.63664386749268 0 0 1-31.762319355010987-29.450119657516474 30.119440927505494 30.119440927505494 0 0 1 13.599383955001832-26.01224524497986l-0.7605924224853516-0.7910156249999999 37.54281898498536-36.50841310501099a282.7880859375 282.7880859375 0 0 1-167.99954993247985-82.0830826950073l-99.30288414001465-107.63897294998168 0.15211833000183103-0.15211833000183103a30.119440927505494 30.119440927505494 0 0 1-8.214392910003662-20.475135097503657 30.423677587509154 30.423677587509154 0 0 1 30.423677587509154-30.423677587509154 30.119440927505494 30.119440927505494 0 0 1 22.209284677505494 9.948542490005492l0.15211833000183103-0.15211833000183103 97.78170083999635 106.0569409275055a222.21454344749452 222.21454344749452 0 0 0 128.75300534248353 64.072265625l-40.34179687499999-40.40264405250549a30.210712080001827 30.210712080001827 0 0 1-11.621844892501832-22.422250957489016c-0.6693212699890136-16.91556478500366 12.473707695007322-31.15384603500366 29.38927248001099-31.823166532516474a30.119440927505494 30.119440927505494 0 0 1 23.42623208999634 10.13108479499817l0.36508383750915524-0.3346606349945068 114.36260499000551 114.45387614250183-114.697265625 111.41150876998901-0.30423666000366206-0.3042374324798584zM437.67495522499087 350.86861490249635a30.02816977500916 30.02816977500916 0 0 1-22.1484375-9.857272109985352l-0.15211833000183103 0.12169512748718264-103.31881021499635-111.44193197250365A223.4010668849945 223.4010668849945 0 0 0 158.17262614250183 168.6003605175017v-0.36508383750915524c-0.6693212699890136 0.030423974990844725-1.2169474124908448 0.36508383750915524-1.8862679100036623 0.36508383750915524a30.423677587509154 30.423677587509154 0 1 1 0-60.84735594749451c0.6693212699890136 0 1.2169474124908448 0.36508383750915524 1.8862679100036623 0.3650846099853515v-0.3650846099853515c73.04725095748901 0 142.5349308300018 27.59427572250366 197.05416177749635 79.1015625l104.7487231349945 112.90226886749265-0.15211833000183103 0.12169435501098633a30.02816977500916 30.02816977500916 0 0 1 8.275240087509154 20.56640625 30.423677587509154 30.423677587509154 0 0 1-30.423677587509154 30.423678359985352"  horiz-adv-x="1063" />

    
    <glyph glyph-name="yinle1" unicode="&#58887;" d="M589.389576 382.758788V806.477576c0 30.937212 16.228848 53.123879 42.263272 57.871515 4.778667 1.05503 9.712485 1.05503 14.491152 0 60.229818-14.429091 114.65697-40.587636 171.442424-82.323394 17.43903-12.877576 34.071273-26.841212 49.772606-41.797818a19.859394 19.859394 0 1 0-27.368727-28.734061 472.281212 472.281212 0 0 1-45.800727 38.477576c-51.541333 37.91903-100.879515 61.781333-154.934303 75.093333h-1.210182c-6.206061-2.01697-8.967758-8.192-8.967758-18.618182v-472.591515c4.189091-10.519273 6.454303-21.721212 6.454303-33.295515 0-61.626182-63.674182-111.460848-141.870545-111.460848s-141.839515 49.865697-141.839515 111.398788c0 61.564121 63.51903 111.460848 141.839515 111.460848v0.03103c36.926061 0 70.500848-11.046788 95.728485-29.168485z m-65.163637-497.508849C258.916848-114.874182 40.432485 93.556364 28.082424 358.555152 15.825455 623.553939 213.953939 851.440485 478.052848 875.923394c15.204848 1.489455 30.72 2.141091 46.142061 2.141091a19.859394 19.859394 0 0 0 0-39.718788c-14.211879 0-28.516848-0.620606-42.449454-1.861818-245.635879-22.962424-428.652606-236.761212-413.416728-483.048727 15.266909-246.225455 223.294061-435.851636 469.860849-428.280243 246.566788 7.571394 442.554182 209.609697 442.647272 456.331636a452.483879 452.483879 0 0 1-80.709818 259.289213 19.859394 19.859394 0 0 0 32.70594 22.528 496.484848 496.484848 0 0 0-408.576-778.24l-0.062061 0.186181z"  horiz-adv-x="1024" />

    
    <glyph glyph-name="lrc" unicode="&#58881;" d="M832.78658333 784.49777778L191.21341667 784.49777778C147.18293333 784.49777778 111.50222222 748.52579555 111.50222222 704.78658333l0-641.52462223C111.50222222 19.18293332999997 147.47420445-16.49777777999998 191.21341667-16.49777777999998l641.52462223 0c44.03048334 0 79.71119445 35.97198222 79.71119445 79.71119445L912.44923221 704.78658333C912.49777778 748.81706667 876.52579555 784.49777778 832.78658333 784.49777778zM839.2916389 56.32000000000005c0 0.33981667-654.9716389 0.3883611-654.9716389 0.3883611C184.65981667 56.70836110000005 184.7083611 711.6800000000001 184.7083611 711.6800000000001 184.7083611 711.34018333 839.68 711.2916389 839.68 711.2916389 839.34018333 711.2916389 839.2916389 56.32000000000005 839.2916389 56.32000000000005zM730.06497223 191.17852445000005l0.3883611-0.19418112L730.45333333 568.71443001c-1.31072 21.16570112-15.87427555 32.42818333-43.6421211 33.73890332L452.58069333 602.4533333300001c-14.56355555-1.31072-22.47642112-10.58284999-23.83568554-27.76784554 1.31072-17.18499555 9.27212999-26.45712555 23.83568554-27.76784555l216.31734557 0c3.98070557 0 5.97105778-1.99035221 5.97105777-5.97105778l0-321.5147611 0.53399666-0.29127111-74.85667555 0c-7.62159445 0-20.00061667-9.90321778-20.97152-25.77749334 0.97090333-17.18499555 11.50520889-26.45712555 20.97152-27.76784554l112.57628444 0C723.12300999 166.8088411 728.75425223 175.35279445000003 730.06497223 191.17852445000005zM472.43567445 467.4977189c-13.25283555 1.31072-20.48606777 10.58284999-21.84533333 27.76784555 1.31072 15.87427555 8.59249778 24.46677333 21.84533333 25.77749333l162.72346112 0c15.87427555-1.31072 24.46677333-9.90321778 25.77749334-25.77749333-1.31072-17.18499555-9.27212999-26.45712555-23.83568555-27.76784555L472.43567445 467.4977189zM310.29475555 548.8594488900001C302.52752555 550.17016889 285.24544 559.44229888 284.46871666 576.67584 285.24544 592.55011555 299.71190557 601.14261333 307.52768 602.4533333300001l63.98255445 0c9.36922112-1.31072 22.76769223-9.90321778 23.54441444-25.77749333C394.32647111 559.44229888 380.10273223 550.17016889 371.51023445 548.8594488900001L310.29475555 548.8594488900001zM387.0932389 220.59690666999995l0 233.01688888c1.31072 29.12711111-9.90321778 43.01103445-33.73890333 41.70031446L305.73150777 495.31411001C291.16795221 493.95484445 283.25508779 484.68271445 281.89582222 467.4977189c1.31072-18.54426112 9.27212999-28.4474789 23.83568555-29.7581989L325.58648889 437.73952c3.98070557 0 5.97105778-1.99035221 5.97105778-5.97105778l0-235.15287665c-0.09708999-0.58254222-0.14563555-1.21363001-0.14563556-1.84471666 0.14563555-3.44670777 0.97090333-6.5536 2.2330789-9.36922112 3.30107221-10.82557667 8.98085888-16.45681778 21.74824334-19.61225444 2.13598777-0.33981667 4.22343111 0.09708999 6.31087446 1.21363001l55.92405333 0c8.2526811 1.31072 23.64150557 10.58284999 24.41822777 27.76784555-0.72817778 15.87427555-15.38882333 24.46677333-24.41822777 25.77749333 0 0-13.83537778 0-28.30184335 0L387.0932389 220.54836109999997zM498.26171221 245.20931555000004c-27.76784555 0-41.70031445 13.25283555-41.70031445 39.70996111L456.5613989 400.01991111c0 26.45712555 11.89356999 39.7099611 35.72925667 39.7099611l117.09098667 0c27.76784555 0 41.0206811-11.26248334 39.7099611-33.73890332l0-121.07169223c0-26.45712555-11.89356999-39.7099611-35.72925667-39.70996111L498.26171221 245.20931555000004zM512.14563555 302.78390557c1.31072-2.66998557 3.30107221-4.61179221 5.97105778-5.97105778l69.46816 0c3.98070557 0 5.97105778 1.99035221 5.97105778 5.97105778L593.55591111 380.16492999c0 3.98070557-1.99035221 5.97105778-5.97105778 5.97105778L518.06814777 386.13598777c-3.98070557 0-5.97105778-1.99035221-5.97105778-5.97105778L512.09708999 302.78390557z"  horiz-adv-x="1024" />

    
    <glyph glyph-name="diantaibofangye_zanting" unicode="&#58890;" d="M653 614.5h-51.5c-7 0-12.7-5.8-12.7-12.8v-435.4c0-7.1 5.5-12.8 12.7-12.8H653c7 0 12.7 5.8 12.7 12.8V601.7c0 7.1-5.6 12.8-12.7 12.8zM422.5 614.5H371c-7 0-12.7-5.8-12.7-12.8v-435.4c0-7.1 5.5-12.8 12.7-12.8h51.5c7 0 12.7 5.8 12.7 12.8V601.7c0 7.1-5.6 12.8-12.7 12.8z"  horiz-adv-x="1024" />

    
    <glyph glyph-name="diantaibofangye_bofang" unicode="&#58891;" d="M364.4 159.4c-24.4-14.2-44.2-2.9-44.2 25.6V583.6c0 28.3 19.2 38.9 43.1 23.6l323.6-207.8c23.8-15.3 23.3-39.1-1.2-53.4L364.4 159.4z"  horiz-adv-x="1024" />

    
    <glyph glyph-name="yinle2" unicode="&#58986;" d="M512 789.333333C288 789.333333 106.666667 608 106.666667 384c0-64 14.933333-128 44.8-185.6 19.2-36.266667 42.666667-68.266667 70.4-96 27.733333-27.733333 57.6-53.333333 91.733333-70.4 59.733333-34.133333 128-51.2 198.4-51.2 224 0 405.333333 181.333333 405.333333 405.333333S736 789.333333 512 789.333333z m0-768c-61.866667 0-123.733333 14.933333-177.066667 46.933334-29.866667 17.066667-57.6 38.4-83.2 64-25.6 25.6-44.8 55.466667-61.866666 87.466666C162.133333 268.8 149.333333 326.4 149.333333 384c0 200.533333 162.133333 362.666667 362.666667 362.666667 29.866667 0 57.6-4.266667 85.333333-10.666667v-349.866667c0-8.533333 0-17.066667-2.133333-25.6-6.4-21.333333-19.2-40.533333-40.533333-51.2s-42.666667-14.933333-64-8.533333c-44.8 12.8-72.533333 59.733333-59.733334 104.533333 6.4 21.333333 19.2 40.533333 40.533334 51.2 19.2 10.666667 42.666667 14.933333 64 8.533334 10.666667-2.133333 23.466667 4.266667 25.6 14.933333 2.133333 10.666667-4.266667 23.466667-14.933334 25.6-34.133333 10.666667-68.266667 6.4-98.133333-10.666667s-51.2-44.8-59.733333-78.933333c-17.066667-68.266667 23.466667-138.666667 91.733333-155.733333 10.666667-2.133333 21.333333-4.266667 32-4.266667 57.6 0 108.8 38.4 123.733333 96 2.133333 10.666667 4.266667 21.333333 4.266667 32V723.2c136.533333-51.2 234.666667-183.466667 234.666667-339.2 0-200.533333-162.133333-362.666667-362.666667-362.666667z"  horiz-adv-x="1024" />

    
    <glyph glyph-name="diantaibofangye_zanting1" unicode="&#58882;" d="M653 614.5h-51.5c-7 0-12.7-5.8-12.7-12.8v-435.4c0-7.1 5.5-12.8 12.7-12.8H653c7 0 12.7 5.8 12.7 12.8V601.7c0 7.1-5.6 12.8-12.7 12.8zM422.5 614.5H371c-7 0-12.7-5.8-12.7-12.8v-435.4c0-7.1 5.5-12.8 12.7-12.8h51.5c7 0 12.7 5.8 12.7 12.8V601.7c0 7.1-5.6 12.8-12.7 12.8z"  horiz-adv-x="1024" />

    
    <glyph glyph-name="icon--" unicode="&#59261;" d="M204.8 537.6h102.4l89.6-122.88 33.28 40.96S340.48 578.56 332.8 588.8H204.8c-15.36 0-25.6-12.8-25.6-28.16 0-12.8 10.24-23.04 25.6-23.04z m512 0v-69.12c7.68-7.68 30.72-10.24 38.4-2.56l107.52 81.92c7.68 7.68 7.68 20.48 0 28.16l-107.52 81.92c-7.68 7.68-30.72 10.24-38.4 2.56V588.8h-128L307.2 204.8H204.8c-15.36 0-25.6-10.24-25.6-23.04 0-15.36 10.24-28.16 25.6-28.16h128l281.6 384h102.4z m38.4-261.12c-7.68 7.68-30.72 5.12-38.4-2.56V204.8h-102.4l-89.6 122.88-33.28-40.96 97.28-130.56h128v-74.24c7.68-7.68 30.72-5.12 38.4 2.56l107.52 81.92c7.68 7.68 7.68 20.48 0 28.16l-107.52 81.92z"  horiz-adv-x="1024" />

    
    <glyph glyph-name="danquxunhuan" unicode="&#58914;" d="M665.6 705.828571c-14.628571 0-29.257143-10.971429-29.257143-29.257142s10.971429-29.257143 29.257143-29.257143c142.628571 0 256-120.685714 256-263.314286 0-146.285714-113.371429-263.314286-256-263.314286h-164.571429c-14.628571 0-29.257143-10.971429-29.257142-29.257143 0-3.657143 0-7.314286 3.657142-10.971428 0-3.657143 3.657143-7.314286 7.314286-10.971429l76.8-73.142857c3.657143-3.657143 10.971429-7.314286 18.285714-7.314286s14.628571 3.657143 21.942858 7.314286c10.971429 10.971429 10.971429 29.257143 0 40.228572l-29.257143 25.6h95.085714c171.885714 0 310.857143 142.628571 310.857143 321.828571 3.657143 175.542857-138.971429 321.828571-310.857143 321.828571zM373.028571 120.685714c-149.942857 0-270.628571 120.685714-270.628571 263.314286 0 146.285714 120.685714 263.314286 270.628571 263.314286h149.942858c14.628571 3.657143 25.6 14.628571 25.6 29.257143 0 7.314286-3.657143 14.628571-10.971429 21.942857l-76.8 69.485714c-10.971429 10.971429-29.257143 10.971429-40.228571 0-10.971429-10.971429-10.971429-29.257143 0-40.228571l25.6-25.6h-76.8c-179.2 0-325.485714-142.628571-325.485715-321.828572 0-175.542857 146.285714-321.828571 325.485715-321.828571 14.628571 0 29.257143 10.971429 29.257142 29.257143s-10.971429 32.914286-25.6 32.914285zM522.971429 526.628571c-10.971429 3.657143-21.942857 3.657143-29.257143-7.314285l-73.142857-76.8c-10.971429-10.971429-10.971429-29.257143 0-40.228572 3.657143-3.657143 10.971429-7.314286 18.285714-7.314285s14.628571 3.657143 21.942857 7.314285l25.6 29.257143v-168.228571c0-14.628571 10.971429-29.257143 29.257143-29.257143 14.628571 0 29.257143 10.971429 29.257143 29.257143v237.714285c-3.657143 10.971429-10.971429 21.942857-21.942857 25.6z"  horiz-adv-x="1024" />

    
    <glyph glyph-name="xiazaiguanli-xiazai" unicode="&#58909;" d="M798.1 222.1s8.9-20.7 0-47.4-47.4-47.4-47.4-47.4H323.9c-37.9 0-47.4 57.4-47.4 47.4v47.4c0 36.8-47.4 36.8-47.4 0v-47.4c0-15.8 30.2-94.8 94.8-94.8h426.7c17.2 0 94.8 25.7 94.8 94.8v47.4c0.1 36.8-47.3 36.8-47.3 0zM313 421.3l203.6-178.2c3.3-2.9 7.5-4.7 11.9-5 4.4-0.3 12.9-0.3 17.2 0 4.4 0.3 8.6 2.1 11.9 5l204 178.2c8.5 7.4 9.4 20.3 1.9 28.8-7.4 8.5-20.3 9.4-28.8 1.9L561.3 300.6V651.8c0 11.3-9.2 20.4-20.4 20.4s-20.4-9.2-20.4-20.4V294L339.9 452.1c-8.5 7.4-21.4 6.6-28.8-1.9-7.5-8.5-6.6-21.4 1.9-28.9z"  horiz-adv-x="1024" />

    
    <glyph glyph-name="zuidahua" unicode="&#58987;" d="M204.8 640a51.2 51.2 0 0 1-51.2-51.2v-409.6a51.2 51.2 0 0 1 51.2-51.2h614.4a51.2 51.2 0 0 1 51.2 51.2V588.8a51.2 51.2 0 0 1-51.2 51.2H204.8z m0 51.2h614.4a102.4 102.4 0 0 0 102.4-102.4v-409.6a102.4 102.4 0 0 0-102.4-102.4H204.8a102.4 102.4 0 0 0-102.4 102.4V588.8a102.4 102.4 0 0 0 102.4 102.4z"  horiz-adv-x="1024" />

    
    <glyph glyph-name="weibo1" unicode="&#58895;" d="M495.9 440.1c-78.7-6.1-142.5-56.6-142.5-112.8 0-56.3 63.8-96.9 142.5-90.9 78.7 6.1 142.5 56.6 142.5 112.8 0 56.3-63.8 97-142.5 90.9z m-11.4-180.7c-47.2-5.7-85.5 22.5-85.5 62.9s38.3 77.8 85.5 83.5S570 383.4 570 343c0-40.5-38.3-77.9-85.5-83.6zM513 783c-220.4 0-399-178.6-399-399s178.6-399 399-399 399 178.6 399 399-178.6 399-399 399z m217.3-473.4c-36-76.6-154.7-113.9-242.7-106.9-83.6 6.5-191 34.3-202.1 135.6 0 0-5.9 45.9 38.5 105.3 0 0 63.9 89.4 138.3 114.9 74.5 25.4 83.2-17.6 83.2-43-4-21.5-11.4-34.2 16.6-25.5 0 0 73.2 34 103.3 3.8 24.3-24.4 4-57.9 4-57.9s-10.1-11.2 10.7-15.2c20.8-4.1 86.2-34.4 50.2-111.1z"  horiz-adv-x="1024" />

    
    <glyph glyph-name="tubiaozhizuomoban" unicode="&#59059;" d="M486.59960937 695.92382813c40.95703125 31.81640625 72.7734375 14.765625 72.77343751-36.38671876v-556.96289062c0-48.8671875-31.81640625-63.6328125-68.203125-31.81640625L327.4296875 204.96679687000005H237.69335937c-51.15234375 0-89.82421875 40.95703125-89.82421874 89.82421876V477.69140625c0 48.8671875 40.95703125 89.82421875 89.82421875 89.82421875h85.25390625l163.65234374 128.40820313z m167.08007813-459.14062501c-10.1953125 0-17.05078125 4.5703125-21.62109375 10.19531251-14.765625 14.765625-14.765625 31.81640625 0 44.296875 53.4375 53.4375 53.4375 134.12109375 0 187.55859374-14.765625 14.765625-14.765625 31.81640625 0 44.29687501 14.765625 14.765625 31.81640625 14.765625 46.58203125 0 82.96875-75.05859375 82.96875-196.61132813 0-272.81250001-12.48046875-11.25-14.67773438-13.53515625-24.9609375-13.53515624z m89.82421875-51.15234374c-14.765625 14.765625-14.765625 31.81640625 0 44.296875 85.25390625 85.25390625 85.25390625 219.375 0 304.62890624-14.765625 14.765625-14.765625 31.81640625 0 44.29687501 14.765625 14.765625 31.81640625 14.765625 46.58203125 0 53.4375-53.4375 85.25390625-121.640625 85.25390625-192.12890626 0-70.48828125-31.81640625-143.26171875-85.25390625-192.12890624-4.5703125-4.5703125-14.765625-10.1953125-21.62109375-10.19531251-10.1953125-6.76757813-19.3359375-1.0546875-24.9609375 1.23046875z m0 0"  horiz-adv-x="1024" />

    
    <glyph glyph-name="gecitiaozheng" unicode="&#58997;" d="M512-128C230.4-128 0 102.4 0 384S230.4 896 512 896s512-230.4 512-512-230.4-512-512-512z m0 972.8C258.56 844.8 51.2 637.44 51.2 384s207.36-460.8 460.8-460.8 460.8 207.36 460.8 460.8S765.44 844.8 512 844.8zM256 473.6h125.44v-256c15.36 12.8 33.28 33.28 53.76 53.76l10.24-46.08c-30.72-33.28-66.56-61.44-102.4-89.6l-15.36 38.4c7.68 5.12 12.8 15.36 12.8 25.6V435.2H256v38.4z m69.12 174.08c35.84-25.6 69.12-56.32 99.84-89.6l-28.16-28.16c-30.72 33.28-64 64-99.84 89.6l28.16 28.16z m312.32-527.36l-10.24 40.96h69.12c20.48 0 28.16 10.24 28.16 30.72V588.8H448v40.96H768V179.2c0-38.4-20.48-58.88-61.44-58.88h-69.12zM460.8 519.68h225.28v-40.96H460.8v40.96z m20.48-102.4h181.76v-181.76h-181.76v181.76z m140.8-145.92v107.52h-102.4v-107.52h102.4z"  horiz-adv-x="1024" />

    
    <glyph glyph-name="jinyin" unicode="&#59096;" d="M762.112 788.096L171.264 342.912V569.728c0 45.056 33.92 81.536 75.712 81.536h113.536L701.184 896c41.792 0 60.928-36.48 60.928-81.536v-26.368z m0-383.872v-405.568c0-45.056-19.136-81.6-60.928-81.6l-299.776 215.36 360.704 271.808zM0 96.96L954.816 816.448 1024 724.608 69.184 5.12 0 96.96z"  horiz-adv-x="1024" />

    
    <glyph glyph-name="huiyuan1" unicode="&#58945;" d="M940.8 523.2l-176 219.2c-17.6 22.4-46.4 36.8-75.2 36.8H334.4c-28.8 0-56-12.8-75.2-36.8l-176-219.2c-30.4-36.8-27.2-91.2 4.8-126.4l356.8-377.6 4.8-4.8c17.6-16 41.6-25.6 65.6-25.6h3.2c25.6 1.6 49.6 11.2 67.2 30.4l348.8 376c33.6 36.8 35.2 91.2 6.4 128z m-52.8-83.2L539.2 64c-6.4-6.4-14.4-9.6-22.4-9.6-8 0-16 3.2-22.4 8L136 441.6c-11.2 11.2-11.2 28.8-1.6 41.6l174.4 219.2c6.4 8 16 12.8 25.6 12.8h355.2c9.6 0 19.2-4.8 25.6-12.8l176-219.2c8-12.8 8-30.4-3.2-43.2zM681.6 457.6L515.2 280 344 460.8c-12.8 12.8-32 14.4-46.4 1.6-12.8-11.2-12.8-32-1.6-44.8l172.8-182.4 3.2-3.2c25.6-24 65.6-22.4 91.2 3.2L729.6 416c11.2 12.8 11.2 33.6-1.6 44.8-14.4 11.2-33.6 9.6-46.4-3.2z"  horiz-adv-x="1024" />

    
    <glyph glyph-name="pengyou" unicode="&#59041;" d="M385.024 334.848c0 12.8-10.24 23.552-23.552 23.552-84.48 0-153.088 73.216-153.088 163.84s69.12 163.84 153.088 163.84c12.8 0 23.552 10.24 23.552 23.552s-10.24 23.552-23.552 23.552c-110.08-0.512-199.68-94.208-199.68-210.432 0-76.8 39.424-144.896 98.816-181.248-125.952-44.544-216.576-169.984-216.576-317.44 0-12.8 10.24-23.552 23.552-23.552 12.8 0 23.552 10.24 23.552 23.552 0 158.72 121.344 287.744 270.848 287.744 12.8 0 23.04 10.24 23.04 23.04zM741.888 321.536c79.36 39.936 133.632 122.368 133.632 217.088-0.512 134.656-109.568 243.712-244.224 243.712S387.584 672.256 387.584 538.112c0-91.648 51.2-171.52 126.464-212.992h3.072c-144.384-45.568-249.344-180.224-249.344-338.944h712.192c-1.024 154.624-99.84 286.208-238.08 335.36zM433.664 538.112c0 109.056 88.576 197.632 197.632 197.632s197.632-88.576 197.632-197.632c-0.512-105.984-83.456-192-186.88-197.632-6.144 0.512-11.776 0.512-17.408 0.512h-6.656c-103.424 7.68-184.32 93.184-184.32 197.12z m-116.736-508.928c20.992 149.504 150.016 265.216 305.664 265.216 156.16 0 284.672-115.712 305.664-265.216H316.928z"  horiz-adv-x="1024" />

    
    <glyph glyph-name="shipin2" unicode="&#58910;" d="M932.571429 0h-841.142858A18.285714 18.285714 0 0 0 73.142857 18.285714V749.714286a18.285714 18.285714 0 0 0 18.285714 18.285714h841.142858a18.285714 18.285714 0 0 0 18.285714-18.285714v-731.428572a18.285714 18.285714 0 0 0-18.285714-18.285714zM109.714286 36.571429h804.571428v694.857142H109.714286zM402.285714 219.428571a19.382857 19.382857 0 0 0-8.777143 2.194286 18.651429 18.651429 0 0 0-9.508571 16.091429v292.571428a18.285714 18.285714 0 0 0 28.525714 15.36l219.428572-146.285714a18.651429 18.651429 0 0 0 0-30.72l-219.428572-146.285714a20.845714 20.845714 0 0 0-10.24-2.925715z m18.285715 276.845715v-224.548572L588.8 384z"  horiz-adv-x="1024" />

    
    <glyph glyph-name="zanting1" unicode="&#58888;" d="M512 832.1C265.2 832.1 65.1 631.5 65.1 384c0-247.5 200.1-448.1 446.9-448.1S958.9 136.5 958.9 384c0 247.5-200.1 448.1-446.9 448.1zM448.2 224H320.5V544h127.7v-320z m255.3 0H575.8V544h127.7v-320z"  horiz-adv-x="1024" />

    
    <glyph glyph-name="xihuan2" unicode="&#58896;" d="M895.5 563.3c-4.4 74.5-39 131.2-97.4 159.7-78.1 38.1-184.6 17.4-292.3-56.7-74.3 49.3-146.6 75.3-209.2 75.3-59.6 0-107-23.4-137-67.8-44-65-41.9-167.7 5.5-274.7 39-87.8 127.2-222 326.5-362.7l14.1-10 14.4 9.5C649.3 121.2 748 214.1 813.4 312.2c73.7 110.3 85.3 197.4 82.1 251.1z m-124.1-223c-59.2-88.8-148.2-173.7-264.7-252.5-179.9 130.3-259.8 251.9-295.3 331.8-40.3 90.9-44 175.3-9.9 225.8 20.5 30.2 52.4 45.5 95.1 45.5 51.9 0 116.4-23.8 181.6-67.1l28.1-18.7 27.8 19.2c92.4 63.7 180.5 83.1 241.8 53.2 41.2-20.1 65.8-61.7 69.1-117.2 2.7-46-7.8-121.4-73.6-220z"  horiz-adv-x="1024" />

    
    <glyph glyph-name="yinliang1" unicode="&#58908;" d="M581.5 674.5c-11.3 7.6-25.7 9.1-38.3 3.9L278.8 555.1H169c-22.6 0-41-18.4-41-41v-260.4c0-22.6 18.4-41 41-41h109.8L542.1 90l1.2-0.5c5-2 10.2-3 15.5-3 8 0 16 2.4 22.8 7a40.92 40.92 0 0 1 18.1 34v513c-0.1 13.7-6.8 26.4-18.2 34zM549 142.6L297.6 260l-1.1 0.5c-4.9 2-10.1 3-15.5 3H178.6v241H281c5.3 0 10.5 1 15.5 3L549 625.4v-482.8zM708 538.1c-9.9 9.9-25.9 9.9-35.8 0-9.9-9.9-9.9-25.9 0-35.8 63.2-63.2 63.2-166.2 0-229.4-9.9-9.9-9.9-25.9 0-35.8 4.9-4.9 11.4-7.4 17.9-7.4s13 2.5 17.9 7.4c82.9 83 82.9 218 0 301zM796.8 627.5c-9.9 9.9-25.9 9.9-35.8 0-9.9-9.9-9.9-25.9 0-35.8 112.5-112.5 112.5-295.6 0-408.2-9.9-9.9-9.9-25.9 0-35.8 4.9-4.9 11.4-7.4 17.9-7.4s13 2.5 17.9 7.4c132.3 132.3 132.3 347.5 0 479.8z"  horiz-adv-x="1024" />

    
    <glyph glyph-name="plist" unicode="&#58902;" d="M32-36v-60h60a300 300 0 0 0-60 60zM32 864v-540a300 300 0 0 0 60 60V804h840v-840H512a300 300 0 0 0-60-60h540V864zM272 384a240 240 0 1 1 240-240 240 240 0 0 1-240 240z m-90-360v240l180-120zM272 684h600v-60H272zM272 504h600v-60H272zM572 324h300v-60H572zM572 144h300v-60H572z"  horiz-adv-x="1024" />

    
    <glyph glyph-name="shunxubofang-" unicode="&#58916;" d="M203.2 617.6h617.2c15.7 0 28.5 13.4 28.5 30s-12.7 30-28.5 30H203.2c-15.7 0-28.5-13.4-28.5-30 0.1-16.6 12.8-30 28.5-30zM807.2 323.3H216.8c-23.1 0-41.7-13.4-41.7-30s18.7-30 41.7-30h590.3c23.1 0 41.7 13.4 41.7 30 0.1 16.6-18.6 30-41.6 30zM807.2 503.7H216.5c-23.1 0-41.7-13.4-41.7-30s18.7-30 41.7-30h590.7c23.1 0 41.7 13.4 41.7 30s-18.7 30-41.7 30zM758 223c-11.7 11.7-30.7 11.7-42.4 0s-11.7-30.7 0-42.4l30.9-30.9H567.7c-1.1 0-2.1-0.1-3.1-0.2h-368c-12 0-21.8-13.4-21.8-30s9.8-30 21.8-30h472.5c0.8 0 1.5 0.1 2.3 0.2h147.5c12.1 0 23.1 7.3 27.7 18.5 4.6 11.2 2.1 24.1-6.5 32.7L758 223z"  horiz-adv-x="1024" />

    
    <glyph glyph-name="shunxubofang" unicode="&#58918;" d="M46.545455 487.434343h879.191919v-103.434343H46.545455v103.434343z m0 258.585859h879.191919v-103.434343H46.545455v103.434343z m724.040404-413.737374l206.868686-155.151515-206.868686-155.151515v103.434343H46.545455v103.434344h724.040404v103.434343z"  horiz-adv-x="1024" />

    
    <glyph glyph-name="yinle3" unicode="&#58883;" d="M1052.444444 412.444444c-14.222222 0-28.444444-11.377778-28.444444-28.444444 0-250.311111-204.8-455.111111-455.111111-455.111111S113.777778 133.688889 113.777778 384 318.577778 839.111111 568.888889 839.111111c14.222222 0 28.444444 11.377778 28.444444 28.444445s-11.377778 28.444444-28.444444 28.444444C287.288889 896 56.888889 665.6 56.888889 384s230.4-512 512-512 512 230.4 512 512c0 14.222222-11.377778 28.444444-28.444445 28.444444zM369.777778 372.622222c0-88.177778 71.111111-159.288889 156.444444-159.288889s156.444444 71.111111 156.444445 159.288889v2.844445 2.844444V765.155556c65.422222-39.822222 119.466667-93.866667 156.444444-159.288889 5.688889-11.377778 14.222222-22.755556 19.911111-36.977778 5.688889-8.533333 14.222222-17.066667 25.6-17.066667 2.844444 0 8.533333 0 11.377778 2.844445 5.688889 2.844444 11.377778 8.533333 14.222222 17.066666 2.844444 5.688889 2.844444 14.222222 0 19.911111-5.688889 14.222222-14.222222 28.444444-22.755555 39.822223-51.2 85.333333-125.155556 156.444444-213.333334 199.111111-2.844444 0-5.688889 2.844444-8.533333 2.844444-2.844444 5.688889-8.533333 5.688889-11.377778 5.688889-14.222222 0-28.444444-11.377778-28.444444-28.444444v-318.577778c-28.444444 25.6-62.577778 36.977778-102.4 36.977778-82.488889 2.844444-153.6-68.266667-153.6-156.444445z m256-2.844444c0-54.044444-45.511111-99.555556-99.555556-99.555556S426.666667 315.733333 426.666667 369.777778s45.511111 99.555556 99.555555 99.555555 99.555556-45.511111 99.555556-99.555555zM278.755556 301.511111c0 14.222222-11.377778 25.6-25.6 25.6s-25.6-11.377778-25.6-25.6c0-110.933333 91.022222-201.955556 201.955555-201.955555 14.222222 0 25.6 11.377778 25.6 25.6s-11.377778 25.6-25.6 25.6c-82.488889 0-150.755556 68.266667-150.755555 150.755555z"  horiz-adv-x="1137" />

    
    <glyph glyph-name="x" unicode="&#59198;" d="M286.165333 97.83466699999997L512 323.66933300000005l225.834667-225.834666 60.330666 60.330666L572.330667 384l225.834666 225.834667-60.330666 60.330666L512 444.330667 286.165333 670.165333 225.834667 609.8346670000001 451.669333 384l-225.834666-225.834667z"  horiz-adv-x="1024" />

    
    <glyph glyph-name="yinliang-gao" unicode="&#59322;" d="M481.6 642.8v-517.3c0-8.2-3-15.4-9-21.4s-13.2-9-21.4-9-15.4 3-21.4 9L271.4 262.4H146.8c-8.2 0-15.4 3-21.4 9-6 6-9 13.1-9 21.4V475.4c0 8.2 3 15.4 9 21.4 6 6 13.1 9 21.4 9h124.6l158.3 158.3c6 6 13.1 9 21.4 9 8.2 0 15.4-3 21.4-9 6.1-5.9 9.1-13 9.1-21.3z m162.3-191.1c13.5-20.9 20.2-43.4 20.2-67.5s-6.7-46.5-20.2-67.3-31.3-35.6-53.5-44.5c-3.2-1.6-7.1-2.4-11.9-2.4-8.2 0-15.4 2.9-21.4 8.8-6 5.9-9 13.1-9 21.6 0 6.7 1.9 12.3 5.7 16.9 3.8 4.6 8.4 8.6 13.8 11.9 5.4 3.3 10.8 7 16.2 10.9 5.4 4 10 9.7 13.8 17.1 3.8 7.4 5.7 16.4 5.7 26.9s-1.9 19.4-5.7 26.9c-3.8 7.4-8.4 13.1-13.8 17.1-5.4 4-10.8 7.6-16.2 10.9s-10 7.3-13.8 11.9-5.7 10.2-5.7 16.9c0 8.6 3 15.8 9 21.6 6 5.9 13.1 8.8 21.4 8.8 4.8 0 8.7-0.8 11.9-2.4 22.2-8.5 40.1-23.2 53.5-44.1z m101.6 66.8c26.9-41.1 40.4-85.8 40.4-134.3s-13.5-93.3-40.4-134.3c-26.9-41.1-62.6-70.9-107-89.6-4.1-1.6-8.1-2.4-11.9-2.4-8.6 0-15.9 3-21.9 9s-9 13.2-9 21.4c0 12.4 6.2 21.7 18.5 28.1 17.7 9.2 29.8 16.2 36.1 20.9 23.5 17.1 41.8 38.6 54.9 64.4 13.2 25.8 19.7 53.3 19.7 82.5 0 29.2-6.6 56.7-19.7 82.5-13.2 25.8-31.5 47.3-54.9 64.4-6.3 4.8-18.4 11.7-36.1 20.9-12.4 6.3-18.5 15.7-18.5 28.1 0 8.2 3 15.4 9 21.4s13.1 9 21.4 9c4.1 0 8.2-0.8 12.4-2.4 44.3-18.7 80-48.6 107-89.6zM847.2 585c40.3-61 60.4-128 60.4-200.9s-20.1-139.9-60.4-200.9-93.8-105.9-160.7-134.8c-4.1-1.6-8.2-2.4-12.4-2.4-8.2 0-15.4 3-21.4 9s-9 13.2-9 21.4c0 11.4 6.2 20.8 18.5 28.1 2.2 1.3 5.8 2.9 10.7 5s8.5 3.7 10.7 5c14.6 7.9 27.6 16 39 24.2 39 28.8 69.4 64.8 91.3 107.9 21.9 43.1 32.8 88.9 32.8 137.4s-10.9 94.3-32.8 137.4c-21.9 43.1-52.3 79.1-91.3 107.9-11.4 8.2-24.4 16.3-39 24.2-2.2 1.3-5.8 2.9-10.7 5s-8.5 3.7-10.7 5c-12.4 7.3-18.5 16.6-18.5 28.1 0 8.2 3 15.4 9 21.4s13.1 9 21.4 9c4.1 0 8.2-0.8 12.4-2.4C753.4 691 806.9 646.1 847.2 585z"  horiz-adv-x="1024" />

    
    <glyph glyph-name="gedan" unicode="&#58991;" d="M770.051533 582.88842131H254.83220512c-24.00821911 0-43.59774757-19.58952848-43.59774758-43.59774759v-494.15690252c0-24.00821911 19.58952848-43.59774757 43.59774758-43.59774759h515.21932788c24.00821911 0 43.59774757 19.58952848 43.59774761 43.59774759V539.14338404c0 24.15550879-19.58952848 43.74503728-43.59774761 43.74503727z m15.7599966-537.75465011c0-8.69009158-7.06990501-15.75999659-15.7599966-15.75999659H254.83220512c-8.69009158 0-15.75999659 7.06990501-15.7599966 15.75999659V539.14338404c0 8.69009158 7.06990501 15.75999659 15.7599966 15.75999661h515.21932788c8.69009158 0 15.75999659-7.06990501 15.7599966-15.75999661v-494.00961284zM277.22023765 640.47868925h470.29597313c7.65906378 0 13.99252034 6.1861669 13.99252032 13.99252032s-6.1861669 13.99252034-13.99252032 13.99252037H277.22023765c-7.65906378 0-13.99252034-6.1861669-13.99252034-13.99252037s6.33345658-13.99252034 13.99252034-13.99252032zM321.84901307 727.37960503h381.03842231c6.92261532 0 12.51962347 5.59700814 12.51962346 12.51962348s-5.59700814 12.51962347-12.51962346 12.51962346H321.84901307c-6.92261532 0-12.51962347-5.59700814-12.51962347-12.51962346s5.59700814-12.51962347 12.51962347-12.51962348zM634.10315118 444.28882511l-194.56967758-31.96186226c-3.38766283-0.58915875-5.89158752-3.5349525-5.89158751-6.92261531v-173.94912129c0-13.40336159-9.72111939-24.74466755-22.9771913-26.6594335l-19.00036972-2.79850407c-16.20186565-2.35663501-28.13233036-16.34915535-28.13233037-32.55102099v-3.38766281c0-20.17868721 17.96934191-35.64410444 37.85344978-32.55102102l24.89195723 3.68224219c22.97719129 3.38766283 39.9155054 23.12448098 39.91550538 46.39625166V332.64324176c0 3.5349525 2.50392469 6.48074626 5.89158751 6.92261533l129.61492527 21.20971503c4.27140094 0.73644845 8.24822251-2.65121438 8.24822251-6.92261531v-94.55997958c0-13.40336159-9.72111939-24.74466755-22.97719129-26.65943349l-19.00036975-2.79850406c-16.20186565-2.35663501-28.13233036-16.34915535-28.13233035-32.55102101v-3.3876628c0-20.17868721 17.96934191-35.64410444 37.85344976-32.55102103l24.89195723 3.68224221c22.97719129 3.38766283 39.9155054 23.12448098 39.9155054 46.39625166V437.36620978c-0.1472897 4.41869063-4.12411126 7.65906378-8.3955122 6.92261533z"  horiz-adv-x="1024" />

    
    <glyph glyph-name="shangyixiang" unicode="&#58990;" d="M838.3 19.1L375.7 333.7c-28.4 16.7-37.8 53.2-21.1 81.6 5.2 8.8 12.5 16.1 21.4 21.3l462.4 312.2c28.4 16.6 64.9 7 81.5-21.4 5.3-9.2 8.1-19.6 8.1-30.2v-626.6c0-32.9-26.7-59.6-59.6-59.5-10.6-0.2-21 2.7-30.1 8zM250 79.8V687.9c0 42-34 76-76 76s-76-34-76-76v-608.1c0-42 34-76 76-76s76 34 76 76z"  horiz-adv-x="1024" />

    
    <glyph glyph-name="xiayixiang" unicode="&#59022;" d="M187.7 748.8l462.6-314.6c28.4-16.7 37.8-53.2 21.1-81.6a59.84 59.84 0 0 0-21.4-21.3L187.6 19.2c-28.4-16.6-64.9-7-81.5 21.4-5.3 9.2-8.1 19.6-8.1 30.2V697.4c0 32.9 26.7 59.6 59.6 59.5 10.6 0 21-2.8 30.1-8.1zM776 688.1V80c0-42 34-76 76-76s76 34 76 76V688.1c0 42-34 76-76 76s-76-34.1-76-76z"  horiz-adv-x="1024" />

    
    <glyph glyph-name="minimize-" unicode="&#59111;" d="M0.000323 870.4A25.374236 25.374236 0 0 0 25.705141 895.895181h971.130961c14.206992 0 25.704819-11.288189 25.704819-25.495181v-465.395906c0-14.005417-11.497827-25.495181-25.704819-25.495181-14.215055 0-25.704819 11.288189-25.704819 25.495181V844.904819H51.200323V-75.026142h442.617952a25.688693 25.688693 0 0 0 25.704819-25.704819 25.688693 25.688693 0 0 0-25.704819-25.704819H25.705141A25.688693 25.688693 0 0 0 0.000323-100.730961V870.4zM996.626464-126.226142v-0.209638h-355.900472a25.688693 25.688693 0 0 0-25.696756 25.704819V255.371087a25.688693 25.688693 0 0 0 25.704819 25.704819h355.892409a25.688693 25.688693 0 0 0 25.704819-25.704819v-355.89241a25.688693 25.688693 0 0 0-25.704819-25.704819zM666.229236 229.875906v-304.902048h304.902047V229.875906H666.229236zM284.003094 357.553386a25.688693 25.688693 0 0 0 25.704819 25.704819H476.684417L186.81985 673.122772a25.479055 25.479055 0 0 0 0 36.154456 25.479055 25.479055 0 0 0 36.154457 0l289.856504-289.864567v166.984567a25.688693 25.688693 0 0 0 25.704819 25.704819 25.688693 25.688693 0 0 0 25.704819-25.704819v-228.827716a25.688693 25.688693 0 0 0-25.704819-25.712882H309.69985a25.688693 25.688693 0 0 0-25.704819 25.704819z"  horiz-adv-x="1024" />

    
    <glyph glyph-name="minimize" unicode="&#59150;" d="M0.104819 870.295181A25.688693 25.688693 0 0 0 25.809638 896h970.921323a25.688693 25.688693 0 0 0 25.704819-25.704819v-971.130961a25.688693 25.688693 0 0 0-25.704819-25.704818H528.609764a25.688693 25.688693 0 0 0-25.704819 25.704818 25.688693 25.688693 0 0 0 25.704819 25.704819h442.819527V844.8H51.52252v-440.110362A25.688693 25.688693 0 0 0 25.801575 378.984819a25.688693 25.688693 0 0 0-25.704819 25.704819V870.295181z m0-970.921323v355.900473a25.688693 25.688693 0 0 0 25.704819 25.696756H381.702047a25.688693 25.688693 0 0 0 25.704819-25.704819v-355.89241a25.688693 25.688693 0 0 0-25.704819-25.704819H25.801575a25.688693 25.688693 0 0 0-25.696756 25.704819z m51.2 330.397229v-304.902048h304.902047V229.771087H51.304819z m432.58759 382.226141a25.688693 25.688693 0 0 0 25.704819-25.704819V419.315906L799.445669 709.180472a25.479055 25.479055 0 0 0 36.154457 0 25.479055 25.479055 0 0 0 0-36.154456l-289.864567-289.856504h166.984567a25.688693 25.688693 0 0 0 25.704819-25.704819 25.688693 25.688693 0 0 0-25.704819-25.704819H483.892409a25.688693 25.688693 0 0 0-25.704818 25.704819V586.300472a25.688693 25.688693 0 0 0 25.704818 25.704819z"  horiz-adv-x="1024" />

    
    <glyph glyph-name="zhuanji1" unicode="&#58894;" d="M150.588235 353.882353a30.117647 30.117647 0 1 0 60.235294 0 271.058824 271.058824 0 0 1 271.058824-271.058824 30.117647 30.117647 0 1 0 0-60.235294C298.917647 22.588235 150.588235 170.917647 150.588235 353.882353z m722.82353 60.235294a30.117647 30.117647 0 1 0-60.235294 0 271.058824 271.058824 0 0 1-271.058824 271.058824 30.117647 30.117647 0 1 0 0 60.235294c182.964706 0 331.294118-148.329412 331.294118-331.294118zM512-128C229.225412-128 0 101.225412 0 384S229.225412 896 512 896s512-229.225412 512-512-229.225412-512-512-512z m0 60.235294c249.494588 0 451.764706 202.270118 451.764706 451.764706 0 249.494588-202.270118 451.764706-451.764706 451.764706C262.505412 835.764706 60.235294 633.494588 60.235294 384c0-249.494588 202.270118-451.764706 451.764706-451.764706z m0 331.294118a120.470588 120.470588 0 1 0 0 240.941176 120.470588 120.470588 0 0 0 0-240.941176z m0 60.235294a60.235294 60.235294 0 1 1 0 120.470588 60.235294 60.235294 0 0 1 0-120.470588z"  horiz-adv-x="1024" />

    
    <glyph glyph-name="pengyou1" unicode="&#59001;" d="M992 26.176c-0.064-13.6-0.864-27.168-2.464-40.64H951.68v-1.536h-159.68v79.776h118.144a280.224 280.224 0 0 1-227.36 237.056 399.744 399.744 0 0 1-50.72 43.712V384.32a160 160 0 0 1 158.144 160.128 160 160 0 0 1-158.656 159.616c-3.616 0-7.232-0.32-10.816-0.544a279.104 279.104 0 0 1-65.92 66.208c111.136 37.856 233.376-9.92 289.248-112.992s29.024-231.392-63.488-303.52A359.264 359.264 0 0 0 992 26.176zM633.536 543.648a239.488 239.488 0 0 0-93.632-189.856 357.216 357.216 0 0 0 209.92-368.224h-37.792v-1.568H72.928v1.568H34.464c-1.6 13.472-2.4 27.04-2.464 40.608a359.36 359.36 0 0 0 212.992 327.904 240 240 0 0 0-69.824 292.16 240.832 240.832 0 0 0 270.336 131.904 240.384 240.384 0 0 0 188.032-234.496zM115.008 63.68h555.36a280.064 280.064 0 0 1-254.784 240.704 258.528 258.528 0 0 0-22.944-1.152c-7.744 0-15.392 0.48-22.944 1.152a280 280 0 0 1-254.688-240.704z m276.96 640.384a160 160 0 0 1-160.128-159.904 160.032 160.032 0 0 1 160.16-159.872 160.064 160.064 0 0 1 160.16 159.904 160.032 160.032 0 0 1-160.16 159.872h-0.032z m0 0"  horiz-adv-x="1024" />

    
    <glyph glyph-name="danquxunhuan1" unicode="&#58892;" d="M665.6 705.828571c-14.628571 0-29.257143-10.971429-29.257143-29.257142s10.971429-29.257143 29.257143-29.257143c142.628571 0 256-120.685714 256-263.314286 0-146.285714-113.371429-263.314286-256-263.314286h-164.571429c-14.628571 0-29.257143-10.971429-29.257142-29.257143 0-3.657143 0-7.314286 3.657142-10.971428 0-3.657143 3.657143-7.314286 7.314286-10.971429l76.8-73.142857c3.657143-3.657143 10.971429-7.314286 18.285714-7.314286s14.628571 3.657143 21.942858 7.314286c10.971429 10.971429 10.971429 29.257143 0 40.228572l-29.257143 25.6h95.085714c171.885714 0 310.857143 142.628571 310.857143 321.828571 3.657143 175.542857-138.971429 321.828571-310.857143 321.828571zM373.028571 120.68571399999996c-149.942857 0-270.628571 120.685714-270.628571 263.314286 0 146.285714 120.685714 263.314286 270.628571 263.314286h149.942858c14.628571 3.657143 25.6 14.628571 25.6 29.257143 0 7.314286-3.657143 14.628571-10.971429 21.942857l-76.8 69.485714c-10.971429 10.971429-29.257143 10.971429-40.228571 0-10.971429-10.971429-10.971429-29.257143 0-40.228571l25.6-25.6h-76.8c-179.2 0-325.485714-142.628571-325.485715-321.828572 0-175.542857 146.285714-321.828571 325.485715-321.828571 14.628571 0 29.257143 10.971429 29.257142 29.257143s-10.971429 32.914286-25.6 32.914285zM1162.9714289 526.628571c-10.971429 3.657143-21.942857 3.657143-29.257143-7.314285l-73.142857-76.8c-10.971429-10.971429-10.971429-29.257143 0-40.228572 3.657143-3.657143 10.971429-7.314286 18.285714-7.314285s14.628571 3.657143 21.942857 7.314285l25.6 29.257143v-168.228571c0-14.628571 10.971429-29.257143 29.257143-29.257143 14.628571 0 29.257143 10.971429 29.257143 29.257143v237.714285c-3.657143 10.971429-10.971429 21.942857-21.942857 25.6z"  horiz-adv-x="1024" />

    
    <glyph glyph-name="bofang1" unicode="&#58889;" d="M512 817.2c-239.3 0-433.2-194-433.2-433.2 0-239.3 194-433.2 433.2-433.2 239.3 0 433.2 194 433.2 433.2 0.1 239.2-193.9 433.2-433.2 433.2z m183.3-447.9L455.1 176c-12.3-9.9-30.5-1.1-30.5 14.6V577.3c0 15.7 18.2 24.5 30.5 14.6l240.2-193.4c9.4-7.5 9.4-21.7 0-29.2z"  horiz-adv-x="1024" />

    
    <glyph glyph-name="pifugexinghua" unicode="&#59368;" d="M257.7 28.4c0-13 21.7-32.2 33.3-32.2h444.2c14.5 0 33.3 18.4 33.3 32.2V342.5c12.7-7.2 28.9-5.9 39.7 4.9l141.3 141c13 12.9 13 34 0.1 46.9l-0.1 0.1s-0.1 0-0.1 0.1L755.1 729.4c-15.6 25.3-43.4 42.4-75.4 42.4h-55.5c-16.2 0-29.7-11.6-32.7-27l-0.6-0.9v1.2c-0.8-2-2-3.9-3.4-5.9-9.4-32.3-38.9-56-74.3-56-31 0-57.6 18.3-70.1 44.5l-0.4 0.3c-0.1 0.4-0.3 0.8-0.4 1.2-0.9 2-1.5 4.1-2.3 6.2-1.4 3.6-3 7.1-4.6 10.6v-5.3h-0.2c-0.2 3.6-1 7.1-2.2 10.3-0.7 1.5-1.5 3-2.3 4.5-5.8 9.8-16.3 16.4-28.5 16.4-2 0-3.9-0.3-5.9-0.7-1 0.5-2.1 0.7-3.2 0.7-0.7 0-1.4-0.2-2.1-0.4v0.4h-44.4c-28.9 0-54.3-14-70.6-35.3l-201.4-201s-0.1 0-0.1-0.1c-13-13-13-34 0-47l141.3-141c11.5-11.5 28.9-12.2 41.9-3.4v-315.7z"  horiz-adv-x="1024" />

    
    <glyph glyph-name="pifugexinghuazhuti-xianxing" unicode="&#59369;" d="M958.6 533.5l-0.1 0.5-0.1 0.5c-0.1 0.6-0.1 2.2-0.1 3.1v1.2l-1.7 7.5-0.2 0.6c-5.8 16.5-16 26.7-23.4 34.1l-5.4 5.4c-5.6 6.4-11.9 12.3-18.1 18.1-5.2 4.8-10.1 9.3-15.1 14.6l-0.2 0.2-132 128.9-1.4 1.4c-6.9 7-14.8 14.9-26.4 20.9-12.6 6.8-28.2 8.2-47.8 8.2-1.1 0-4 0-8 0.1-8.7 0.1-21.8 0.3-32.4 0.3-12.4 0-15.8-0.2-17.5-0.5-4.6-0.7-12.7-3.4-15.7-4.5l-1.2-0.4-16.9-11.3-0.2-0.1c-7.7-5.7-12.8-12.6-16.5-17.7l-0.4-0.5-0.1-0.2c-1.2-1.8-2.7-3.6-3.6-4.6-13.5-10.8-22.8-13.8-49-19.3l-0.3-0.1-0.3-0.1c-4.3-1.2-7.7-1.3-9.2-1.4l-16 0.8c-13.8 2.6-24.1 5-32.8 8.8l-0.3 0.1c-7.6 3-15.2 8.5-17.7 11.8l-1.3 1.7c-4.9 6.7-11.2 14.6-20.2 21.6-6.6 5.4-20.1 12.7-28.5 14.4-6.3 1.3-16.3 2-30.3 2-22.7 0-47.9-1.7-49-1.8l-0.9-0.1-22.6-5.6-0.7-0.3c-15.1-6-25.5-16.4-32.4-23.3L122.9 611.3c-4.1-3.6-7.7-7.2-11.2-10.7-3-3-5.9-5.9-10-9.6-12.2-10.5-30.6-26.4-36.2-55.8-3.2-16.6 3.2-31.3 6.7-39.2l0.2-0.4c6.3-14.1 16-23.1 23-29.7l1.3-1.2 0.5-0.4c1.1-0.8 2.6-2.3 3.7-3.4l5.1-5.1c5-5.5 10.4-10.4 15.6-15.2l17.3-17.3 31.9-30.6 9.1-9.1c0.6-0.6 1.2-1.3 1.9-1.9 3.6-3.6 8-8.1 13.9-12.3l0.2-0.2c13.1-8.8 29.4-13.9 44.7-13.9 6.8 0 13.2 0.9 19.1 2.8V72.3c0-11.5-0.1-24.4 4.7-36.7 6.5-16.8 20-29.5 29.6-35.3 15.8-10.3 35.1-11.7 53.7-11.7h296.2l26.7-0.4c22.1 0 47.3 1.2 67.1 16.1 12.7 9.7 22.5 25.6 26.2 42.5l0.1 0.5 0.6 5v0.5c0.4 27.1 0.4 53.3 0.4 80.9v225c6.8-2.1 13.8-3.2 21-3.2 4.7 0 9.5 0.5 14.3 1.4 27.3 5.1 44.7 25.1 55.1 37.2l83.9 81.3 2.3 2.9 0.9 1.3c6.1 8 20.1 26.8 16.1 53.9z m-147.1-94.2l-2.8-3.3-0.8-0.9c-5.8-6.4-13.6-15.2-18.9-16.2-0.9-0.2-1.8-0.3-2.6-0.3-4.2 0-7.8 2.9-16.8 11.4l-29 27.9-38.5-26.5v-297.6c0-13.1-0.1-26.4-0.2-39.3-0.1-12.1-0.2-24.5-0.2-36.7-0.8-1.6-2-3.2-2.5-3.7-4.3-3-21.5-3.4-28.7-3.4l-305.6 0.4-17-0.4c-14.7 0-18.8 1.3-19.8 1.8l-0.1 0.1c-1.4 0.9-3.6 3.4-4.4 4.8-0.6 3.1-0.6 11.8-0.6 16.7V432l-42.6 25-5.8-6.6c-3.6-4.1-13.5-15.2-16.1-17.8l-0.2-0.2c-6.2-6.5-11.3-11.7-17-13.9h-0.4c-2.5 0-6.6 1.5-8.4 2.7l-0.4 0.3-0.4 0.2c-1.1 0.6-2.9 2.4-4.5 4.2-0.6 0.6-1.3 1.3-1.9 2l-41.8 40.4a336.7 336.7 0 0 0-16.9 16.9l-0.7 0.7-2.3 1.7c-3.1 2.5-5.9 5.4-8.8 8.4-1 1.1-2.1 2.2-3.2 3.2l-5.7 6.1-0.1 0.1c-2.3 2.3-4.3 4.3-6.8 6.3-5.4 4.6-7.3 6.8-8.5 9.4-0.3 1-0.7 2.1-1.2 3.2-0.2 0.4-0.4 0.9-0.5 1.3 1.4 5.5 5 9.2 16.2 19.2l0.2 0.2 11.6 11.6c1.3 1.3 2.7 2.6 4.2 4 1.7 1.6 3.4 3.2 5.3 5.1l116.1 113.5 25.3 24.9 0.3 0.3c7.9 8.4 9.4 9.1 13.3 9.3l12 0.9h50.5c0.3-0.1 0.6-0.2 0.8-0.3 0.9-0.3 1.6-0.5 2-0.8l0.7-0.3 0.7-0.2c0.5-0.2 1.1-0.4 1.7-0.5 2.5-2.4 5-5.3 8-9.3l1.3-1.7 0.2-0.2c14.1-17.8 36.5-28.3 43-31.1l0.2-0.1c13.5-5.5 27.8-9.3 48-12.8l0.4-0.1 14.5-1.3c2.9-0.5 6-0.7 9.4-0.7 6.4 0 13.8 0.8 22.8 2.6 32.1 6.2 51.8 12.7 76.6 32.2 6.7 5.2 11.1 10.8 14.8 16 1.3 1.4 2.4 2.8 3.4 4 0.1 0.2 0.3 0.4 0.5 0.6l6 3.4c1 0.2 2.3 0.4 3.9 0.8h15c2.3 0 4.7 0.1 7 0.2 2.4 0.1 4.9 0.2 7.4 0.2h0.8c4.8 0.4 9.7 0.4 14.8 0.4 12.1 0 17-0.8 18.5-1.1 3.4-2 8.2-6.8 12.4-11l131.3-127.8c5.3-5.7 11-11 17.5-17 4.4-4 10.4-9.5 15.1-14.6l0.2-0.2 6-6 0.2-0.1c3.8-3.5 6-5.9 7.5-8.1v-0.1l0.6-4v-0.2c0.1-0.4 0.3-1.4-3.3-6.3l-82.2-79.8z"  horiz-adv-x="1024" />

    
    <glyph glyph-name="liebiaoxunhuan" unicode="&#58941;" d="M335.872 7.68C156.16 7.68 10.24 153.6 10.24 333.312c0 179.2 145.92 325.632 325.632 325.632H834.56V750.08l162.304-121.856L834.048 506.88V596.992H333.824c-145.408 0-264.192-118.784-263.68-264.192 0-145.408 118.272-263.68 263.68-263.68h357.888c142.848 0 260.096 116.224 260.608 259.584 0 15.36 11.264 29.184 25.6 31.232 1.536 0.512 3.584 0.512 5.12 0.512 16.384 0 30.208-13.312 30.72-29.184v-2.048c0-177.152-144.384-321.024-322.048-321.024H335.872z"  horiz-adv-x="1024" />

    
    <glyph glyph-name="jinyin1" unicode="&#58924;" d="M479.868004 126.585961l262.659869-249.847193s57.657044-32.031691 57.657045 70.469721v634.227489l-454.850018-454.850017z m320.316914 698.290872c0 102.501412-64.063383 64.063383-64.063383 64.063382l-256.253531-249.847192h-192.190148a64.063383 64.063383 0 0 1-64.063383-64.063383v-390.786635l576.570445 576.570445z m6.406338-57.657045c-6.406338-64.063383-6.406338-128.126765-6.406338-185.78381l96.095074 96.095074z m-582.976783-582.976783L127.519399 88.147931l89.688736-89.688735 128.126765 128.126765h-57.657044a67.907186 67.907186 0 0 0-64.063383 57.657044z"  horiz-adv-x="1024" />

    
    <glyph glyph-name="wj-bflb" unicode="&#59172;" d="M608.9 608H225.6c-17.6 0-31.9 14.3-31.9 32s14.3 32 31.9 32H609c17.6 0 31.9-14.3 31.9-32s-14.3-32-32-32zM608.9 416H225.6c-17.6 0-31.9 14.3-31.9 32s14.3 32 31.9 32H609c17.6 0 31.9-14.3 31.9-32s-14.3-32-32-32zM417.3 224H225.6c-17.6 0-31.9 14.3-31.9 32s14.3 32 31.9 32h191.7c17.6 0 31.9-14.3 31.9-32s-14.3-32-31.9-32zM736.6 320c42.6 0 82.7-16.6 112.8-46.9 30.1-30.2 46.7-70.4 46.7-113.1s-16.6-82.9-46.7-113.1c-30.1-30.2-70.2-46.9-112.8-46.9-42.6 0-82.7 16.6-112.8 46.9-30.1 30.2-46.7 70.4-46.7 113.1s16.6 82.9 46.7 113.1C653.9 303.4 694 320 736.6 320m0 64c-123.4 0-223.4-100.3-223.4-224s100-224 223.4-224S960 36.299999999999955 960 160 860 384 736.6 384zM159.7 64c-17.6 0-31.9 14.3-31.9 32V736c0 17.7 14.3 32 31.9 32h513.6c17.6 0 31.9-14.3 31.9-32v-256c0-17.7 14.3-32 31.9-32 17.6 0 31.9 14.3 31.9 32V768c0 35.3-28.6 64-63.8 64H127.8C92.6 832 64 803.3 64 768v-704c0-35.3 28.6-64 63.8-64h353.5c17.6 0 31.9 14.3 31.9 32s-14.3 32-31.9 32H159.7zM812.9 177l-100.1 57.8c-13.2 7.6-29.6-1.9-29.6-17.1v-115.6c0-15.2 16.5-24.7 29.6-17.1l100.1 57.8c13.1 7.6 13.1 26.6 0 34.2z"  horiz-adv-x="1024" />

    
    <glyph glyph-name="xiayige" unicode="&#58937;" d="M192 0V768l512-384-512-384z m576 768h64v-768h-64V768z"  horiz-adv-x="1024" />

    
    <glyph glyph-name="gouwuche" unicode="&#59104;" d="M394.5-128c-53.762 0-97.5 43.738-97.5 97.5s43.738 97.5 97.5 97.5 97.5-43.738 97.5-97.5-43.738-97.5-97.5-97.5z m0 131c-18.472 0-33.5-15.028-33.5-33.5s15.028-33.5 33.5-33.5 33.5 15.028 33.5 33.5-15.028 33.5-33.5 33.5z m381-131c-53.762 0-97.5 43.738-97.5 97.5s43.738 97.5 97.5 97.5 97.5-43.738 97.5-97.5-43.738-97.5-97.5-97.5z m0 131c-18.472 0-33.5-15.028-33.5-33.5s15.028-33.5 33.5-33.5 33.5 15.028 33.5 33.5-15.028 33.5-33.5 33.5z m61.638 119.083c-1.527 0-2.89 0.059-4.068 0.145H401.904c-40.291 0-75.033 15.057-103.262 44.753-23.21 24.416-41.882 58.526-57.082 104.278-26.507 79.791-38.625 182.417-51.453 291.069-2.264 19.172-4.604 38.998-7.001 58.409-8.959 72.566-32.673 124.128-68.579 149.111-35.95 25.013-73.792 17.002-74.165 16.916-17.2-4.067-34.438 6.579-38.504 23.778-4.066 17.198 6.58 34.437 23.779 38.503 2.655 0.627 65.711 14.897 125.444-26.663 39.553-27.52 67.621-71.847 83.81-132.179 0.234 0.005 0.461 0.01 0.7 0.006l686.876-1.434c37.604 0 60.011-15.34 72.175-28.208 27.451-29.042 26.08-68.284 25.833-72.663l-0.076-1.353-0.19-1.341c-0.19-1.346-19.52-136.427-56.264-292.828-16.892-71.897-41.622-121.935-73.504-148.723-21.928-18.422-42.082-21.576-53.303-21.576zM246.919 626.186c2.313-18.807 4.566-37.882 6.747-56.354 12.435-105.319 24.181-204.797 48.631-278.396 12-36.119 26.376-63.156 42.731-80.362 16.115-16.951 34.188-24.847 56.876-24.847h435.573l0.354-0.065c2.134 0.473 9.003 2.747 18.39 13.347 12.518 14.137 30.56 44.264 45.42 107.513 33.716 143.514 52.447 268.352 54.921 285.247-0.093 5.349-1.705 17.408-8.621 24.535-5.135 5.291-13.728 7.973-25.541 7.973l-675.481 1.409z"  horiz-adv-x="1024" />

    
    <glyph glyph-name="xihuan11" unicode="&#58884;" d="M698.522 727.808c-52.685 0-105.472-20.992-145.716-63.078l-36.352-38.042h-0.05l-4.148-4.403-4.198 4.403h-0.052l-36.454 38.042a201.216 201.216 0 0 1-145.818 63.078c-52.787 0-105.625-20.992-145.868-63.078-80.59-84.07-80.59-220.416 0-304.487l164.096-171.315h0.05l127.591-133.171a50.022 50.022 0 0 1 36.301-15.565c1.485 0 2.918 0.102 4.403 0.205a49.613 49.613 0 0 1 40.55 15.36l127.437 133.171 0.154 0.154L807.782 322.15l36.404 38.042c80.435 84.122 80.435 220.416 0 304.486a200.806 200.806 0 0 1-145.664 63.13"  horiz-adv-x="1024" />

    
    <glyph glyph-name="huiyuandengji" unicode="&#59033;" d="M879.9 478.9L777.5 649.6c-5.7 9.6-16.2 15.5-27.4 15.5H275.9c-2.1 0-4.2-0.2-6.2-0.6-0.7-0.1-1.3-0.3-2-0.5-1.3-0.3-2.6-0.8-3.9-1.3-6.4-2.6-11.8-7.3-15.3-13.1L146.1 478.9c-6.9-11.5-5.8-26.3 2.7-36.7l339.5-415c6.1-7.5 15.1-11.7 24.7-11.7s18.6 4.3 24.7 11.7l339.5 415c8.6 10.5 9.6 25.2 2.7 36.7z m-33.5-16L513 55.4 179.6 462.9l99.1 165.2h468.5l99.2-165.2zM513 10c-11.3 0-21.9 5-29 13.8l-339.5 415c-10 12.2-11.2 29.5-3.1 43l102.4 170.7c4.1 6.9 10.5 12.4 18 15.4 1.5 0.6 3 1.1 4.5 1.5 0.8 0.2 1.6 0.4 2.4 0.5 2.4 0.5 4.8 0.7 7.3 0.7h474.2c13.1 0 25.4-7 32.1-18.2l102.4-170.7c8.1-13.5 6.9-30.8-3.1-43L542 23.8c-7.1-8.8-17.7-13.8-29-13.8zM275.9 659.6c-1.7 0-3.5-0.2-5.1-0.5-0.6-0.1-1.1-0.2-1.7-0.4-1.1-0.3-2.2-0.7-3.2-1.1-5.3-2.1-9.8-6-12.7-10.9L150.8 476.1c-5.7-9.6-4.8-21.8 2.2-30.4l339.5-415c5-6.2 12.5-9.7 20.5-9.7s15.4 3.5 20.5 9.7l339.5 415c7.1 8.6 7.9 20.8 2.2 30.4L772.8 646.8c-4.8 7.9-13.5 12.8-22.7 12.8H275.9zM513 46.7L172.9 462.4l102.7 171.2h474.8l102.7-171.2-2.5-3L513 46.7zM186.3 463.4L513 64.1l326.7 399.3-95.6 159.2H281.9l-95.6-159.2zM713 490.3c-0.6 6.4-3.7 12.1-8.7 16.2-10.2 8.4-25.4 6.9-33.8-3.3L505.5 302l-165 201.2c-8.4 10.2-23.5 11.7-33.8 3.3-5-4.1-8-9.8-8.7-16.2-0.6-6.4 1.3-12.6 5.3-17.6l183.1-223.3c4.1-5 9.8-8 16.2-8.7 0.9-0.1 1.9-0.2 2.8-0.1h0.4c0.8 0 1.6 0 2.4 0.1 6.4 0.6 12.1 3.7 16.2 8.7l183.1 223.3c4.3 5 6.2 11.3 5.5 17.6z"  horiz-adv-x="1024" />

    
    <glyph glyph-name="diantai2" unicode="&#59075;" d="M500.592 229.36l-132.256-134.456a16 16 0 0 1 11.408-27.224h264.512a16 16 0 0 1 11.408 27.224L523.408 229.36c-6.488 6.384-16.616 6.296-22.816 0zM678.48 117.344a48 48 0 0 0-34.216-81.664H379.744a48 48 0 0 0-34.216 81.664l132.248 134.456a48 48 0 0 0 67.88 0.56L678.48 117.344z m105.048 14.32a17.688 17.688 0 1 0-26.408 23.544 331.152 331.152 0 0 1 84.192 221.144c0 183.648-148.88 332.528-332.528 332.528-183.64 0-332.52-148.88-332.52-332.528A331.168 331.168 0 0 1 261.28 154.28a17.688 17.688 0 0 0-26.32-23.632 366.536 366.536 0 0 0-94.08 245.704c0 203.184 164.72 367.904 367.896 367.904 203.192 0 367.904-164.72 367.904-367.904A366.52 366.52 0 0 0 783.52 131.68z m-62.216 81.336a17.688 17.688 0 0 0-27.84 21.816 228.856 228.856 0 0 1 48.824 141.704c0 127-102.952 229.952-229.952 229.952-126.992 0-229.944-102.96-229.944-229.952a228.88 228.88 0 0 1 50.64-143.976 17.688 17.688 0 1 0-27.576-22.168 264.24 264.24 0 0 0-58.448 166.144c0 146.536 118.8 265.328 265.328 265.328 146.544 0 265.336-118.792 265.336-265.328a264.224 264.224 0 0 0-56.368-163.52zM655.68 297.36a17.688 17.688 0 1 0-31.84 15.424 123.248 123.248 0 0 1 12.312 53.904c0 68.384-55.44 123.824-123.824 123.824-68.376 0-123.816-55.44-123.816-123.824 0-19.216 4.368-37.76 12.656-54.6a17.688 17.688 0 1 0-31.744-15.624 158.608 158.608 0 0 0-16.288 70.224c0 87.92 71.28 159.2 159.2 159.2 87.92 0 159.2-71.28 159.2-159.2 0-24.32-5.48-47.896-15.856-69.328z"  horiz-adv-x="1024" />

    
    <glyph glyph-name="diantai3" unicode="&#58885;" d="M941.278898 663.018207l-13.823288-4.09579-31.230392-132.089197A409.578907 409.578907 0 1 0 512.244993 793.571483a405.483118 405.483118 0 0 0 127.481435-20.478945l23.550787 102.394726A523.237053 523.237053 0 0 1 512.244993 895.96621a511.973633 511.973633 0 1 1 429.033905-232.948003zM256.258177 383.992576a255.986817 255.986817 0 0 1 508.389818-42.493811l91.131306 385.004172 119.801831 36.350128A67.58052 67.58052 0 0 1 937.183109 892.894368L742.121155 834.529374l-61.436836-255.986817A255.986817 255.986817 0 0 1 256.258177 383.992576z"  horiz-adv-x="1024" />

    
    <glyph glyph-name="jinyin2" unicode="&#59329;" d="M551.5829 881.3694C591.040191 910.859971 622.851779 894.20326 622.851779 845.461899v-889.290895c0-49.287482-31.538527-65.534602-71.132349-35.839235L266.916972 134.001877H88.881304c-49.150951 0-88.881304 40.071678-88.881304 88.062122V579.705436c0 48.673095 39.389026 88.198652 88.881304 88.198651H266.916972L551.5829 881.3694zM1277.924738 237.901527a51.608499 51.608499 0 0 0-0.682652-73.043775 51.676764 51.676764 0 0 0-73.112041-0.682652l-180.902807 180.834542-184.452599-184.520863a51.676764 51.676764 0 0 0-73.043775-0.682652 51.676764 51.676764 0 0 0 0.682653 73.043775l184.520863 184.452598-180.902807 180.902808a51.676764 51.676764 0 0 0 0.682652 73.043775 51.676764 51.676764 0 0 0 73.11204 0.682652l180.902807-180.834542 184.452599 184.520863a51.676764 51.676764 0 0 0 73.043775 0.682652 51.676764 51.676764 0 0 0-0.682652-73.043775L1097.02193 418.8726l180.902808-180.902807z"  horiz-adv-x="1297" />

    


  </font>
</defs>
</svg>
